solid Visualization Toolkit generated SLA File
 facet normal 0.994522 0 0.104529
  outer loop
   vertex 2.93444 30 200.624
   vertex 3 30 200
   vertex 2.93444 40 200.624
  endloop
 endfacet
 facet normal 0.994522 -0 0.104529
  outer loop
   vertex 2.93444 40 200.624
   vertex 3 30 200
   vertex 3 40 200
  endloop
 endfacet
 facet normal 0.951058 0 0.309014
  outer loop
   vertex 2.74064 30 201.22
   vertex 2.93444 30 200.624
   vertex 2.74064 40 201.22
  endloop
 endfacet
 facet normal 0.951058 -0 0.309014
  outer loop
   vertex 2.74064 40 201.22
   vertex 2.93444 30 200.624
   vertex 2.93444 40 200.624
  endloop
 endfacet
 facet normal 0.866022 0 0.500006
  outer loop
   vertex 2.42705 30 201.763
   vertex 2.74064 30 201.22
   vertex 2.42705 40 201.763
  endloop
 endfacet
 facet normal 0.866022 -0 0.500006
  outer loop
   vertex 2.42705 40 201.763
   vertex 2.74064 30 201.22
   vertex 2.74064 40 201.22
  endloop
 endfacet
 facet normal 0.743146 0 0.66913
  outer loop
   vertex 2.00739 30 202.229
   vertex 2.42705 30 201.763
   vertex 2.00739 40 202.229
  endloop
 endfacet
 facet normal 0.743146 -0 0.66913
  outer loop
   vertex 2.00739 40 202.229
   vertex 2.42705 30 201.763
   vertex 2.42705 40 201.763
  endloop
 endfacet
 facet normal 0.587796 0 0.809009
  outer loop
   vertex 1.5 30 202.598
   vertex 2.00739 30 202.229
   vertex 1.5 40 202.598
  endloop
 endfacet
 facet normal 0.587796 -0 0.809009
  outer loop
   vertex 1.5 40 202.598
   vertex 2.00739 30 202.229
   vertex 2.00739 40 202.229
  endloop
 endfacet
 facet normal 0.40672 0 0.913553
  outer loop
   vertex 0.927051 30 202.853
   vertex 1.5 30 202.598
   vertex 0.927051 40 202.853
  endloop
 endfacet
 facet normal 0.40672 -0 0.913553
  outer loop
   vertex 0.927051 40 202.853
   vertex 1.5 30 202.598
   vertex 1.5 40 202.598
  endloop
 endfacet
 facet normal 0.20792 0 0.978146
  outer loop
   vertex 0.313585 30 202.984
   vertex 0.927051 30 202.853
   vertex 0.313585 40 202.984
  endloop
 endfacet
 facet normal 0.20792 -0 0.978146
  outer loop
   vertex 0.313585 40 202.984
   vertex 0.927051 30 202.853
   vertex 0.927051 40 202.853
  endloop
 endfacet
 facet normal 0 0 1
  outer loop
   vertex -0.313585 30 202.984
   vertex 0.313585 30 202.984
   vertex -0.313585 40 202.984
  endloop
 endfacet
 facet normal 0 -0 1
  outer loop
   vertex -0.313585 40 202.984
   vertex 0.313585 30 202.984
   vertex 0.313585 40 202.984
  endloop
 endfacet
 facet normal -0.20792 0 0.978146
  outer loop
   vertex -0.927051 30 202.853
   vertex -0.313585 30 202.984
   vertex -0.927051 40 202.853
  endloop
 endfacet
 facet normal -0.20792 0 0.978146
  outer loop
   vertex -0.927051 40 202.853
   vertex -0.313585 30 202.984
   vertex -0.313585 40 202.984
  endloop
 endfacet
 facet normal -0.40672 0 0.913553
  outer loop
   vertex -1.5 30 202.598
   vertex -0.927051 30 202.853
   vertex -1.5 40 202.598
  endloop
 endfacet
 facet normal -0.40672 0 0.913553
  outer loop
   vertex -1.5 40 202.598
   vertex -0.927051 30 202.853
   vertex -0.927051 40 202.853
  endloop
 endfacet
 facet normal -0.587796 0 0.809009
  outer loop
   vertex -2.00739 30 202.229
   vertex -1.5 30 202.598
   vertex -2.00739 40 202.229
  endloop
 endfacet
 facet normal -0.587796 0 0.809009
  outer loop
   vertex -2.00739 40 202.229
   vertex -1.5 30 202.598
   vertex -1.5 40 202.598
  endloop
 endfacet
 facet normal -0.743146 0 0.66913
  outer loop
   vertex -2.42705 30 201.763
   vertex -2.00739 30 202.229
   vertex -2.42705 40 201.763
  endloop
 endfacet
 facet normal -0.743146 0 0.66913
  outer loop
   vertex -2.42705 40 201.763
   vertex -2.00739 30 202.229
   vertex -2.00739 40 202.229
  endloop
 endfacet
 facet normal -0.866022 0 0.500006
  outer loop
   vertex -2.74064 30 201.22
   vertex -2.42705 30 201.763
   vertex -2.74064 40 201.22
  endloop
 endfacet
 facet normal -0.866022 0 0.500006
  outer loop
   vertex -2.74064 40 201.22
   vertex -2.42705 30 201.763
   vertex -2.42705 40 201.763
  endloop
 endfacet
 facet normal -0.951058 0 0.309014
  outer loop
   vertex -2.93444 30 200.624
   vertex -2.74064 30 201.22
   vertex -2.93444 40 200.624
  endloop
 endfacet
 facet normal -0.951058 0 0.309014
  outer loop
   vertex -2.93444 40 200.624
   vertex -2.74064 30 201.22
   vertex -2.74064 40 201.22
  endloop
 endfacet
 facet normal -0.994522 0 0.104529
  outer loop
   vertex -3 30 200
   vertex -2.93444 30 200.624
   vertex -3 40 200
  endloop
 endfacet
 facet normal -0.994522 0 0.104529
  outer loop
   vertex -3 40 200
   vertex -2.93444 30 200.624
   vertex -2.93444 40 200.624
  endloop
 endfacet
 facet normal -0.994522 0 -0.104529
  outer loop
   vertex -2.93444 30 199.376
   vertex -3 30 200
   vertex -2.93444 40 199.376
  endloop
 endfacet
 facet normal -0.994522 0 -0.104529
  outer loop
   vertex -2.93444 40 199.376
   vertex -3 30 200
   vertex -3 40 200
  endloop
 endfacet
 facet normal -0.951058 0 -0.309014
  outer loop
   vertex -2.74064 30 198.78
   vertex -2.93444 30 199.376
   vertex -2.74064 40 198.78
  endloop
 endfacet
 facet normal -0.951058 0 -0.309014
  outer loop
   vertex -2.74064 40 198.78
   vertex -2.93444 30 199.376
   vertex -2.93444 40 199.376
  endloop
 endfacet
 facet normal -0.866022 0 -0.500006
  outer loop
   vertex -2.42705 30 198.237
   vertex -2.74064 30 198.78
   vertex -2.42705 40 198.237
  endloop
 endfacet
 facet normal -0.866022 0 -0.500006
  outer loop
   vertex -2.42705 40 198.237
   vertex -2.74064 30 198.78
   vertex -2.74064 40 198.78
  endloop
 endfacet
 facet normal -0.743146 0 -0.66913
  outer loop
   vertex -2.00739 30 197.771
   vertex -2.42705 30 198.237
   vertex -2.00739 40 197.771
  endloop
 endfacet
 facet normal -0.743146 0 -0.66913
  outer loop
   vertex -2.00739 40 197.771
   vertex -2.42705 30 198.237
   vertex -2.42705 40 198.237
  endloop
 endfacet
 facet normal -0.587796 0 -0.809009
  outer loop
   vertex -1.5 30 197.402
   vertex -2.00739 30 197.771
   vertex -1.5 40 197.402
  endloop
 endfacet
 facet normal -0.587796 0 -0.809009
  outer loop
   vertex -1.5 40 197.402
   vertex -2.00739 30 197.771
   vertex -2.00739 40 197.771
  endloop
 endfacet
 facet normal -0.40672 0 -0.913553
  outer loop
   vertex -0.927051 30 197.147
   vertex -1.5 30 197.402
   vertex -0.927051 40 197.147
  endloop
 endfacet
 facet normal -0.40672 0 -0.913553
  outer loop
   vertex -0.927051 40 197.147
   vertex -1.5 30 197.402
   vertex -1.5 40 197.402
  endloop
 endfacet
 facet normal -0.20792 0 -0.978146
  outer loop
   vertex -0.313585 30 197.016
   vertex -0.927051 30 197.147
   vertex -0.313585 40 197.016
  endloop
 endfacet
 facet normal -0.20792 0 -0.978146
  outer loop
   vertex -0.313585 40 197.016
   vertex -0.927051 30 197.147
   vertex -0.927051 40 197.147
  endloop
 endfacet
 facet normal 0 0 -1
  outer loop
   vertex 0.313585 30 197.016
   vertex -0.313585 30 197.016
   vertex 0.313585 40 197.016
  endloop
 endfacet
 facet normal 0 0 -1
  outer loop
   vertex 0.313585 40 197.016
   vertex -0.313585 30 197.016
   vertex -0.313585 40 197.016
  endloop
 endfacet
 facet normal 0.20792 0 -0.978146
  outer loop
   vertex 0.927051 30 197.147
   vertex 0.313585 30 197.016
   vertex 0.927051 40 197.147
  endloop
 endfacet
 facet normal 0.20792 0 -0.978146
  outer loop
   vertex 0.927051 40 197.147
   vertex 0.313585 30 197.016
   vertex 0.313585 40 197.016
  endloop
 endfacet
 facet normal 0.40672 0 -0.913553
  outer loop
   vertex 1.5 30 197.402
   vertex 0.927051 30 197.147
   vertex 1.5 40 197.402
  endloop
 endfacet
 facet normal 0.40672 0 -0.913553
  outer loop
   vertex 1.5 40 197.402
   vertex 0.927051 30 197.147
   vertex 0.927051 40 197.147
  endloop
 endfacet
 facet normal 0.587796 0 -0.809009
  outer loop
   vertex 2.00739 30 197.771
   vertex 1.5 30 197.402
   vertex 2.00739 40 197.771
  endloop
 endfacet
 facet normal 0.587796 0 -0.809009
  outer loop
   vertex 2.00739 40 197.771
   vertex 1.5 30 197.402
   vertex 1.5 40 197.402
  endloop
 endfacet
 facet normal 0.743146 0 -0.66913
  outer loop
   vertex 2.42705 30 198.237
   vertex 2.00739 30 197.771
   vertex 2.42705 40 198.237
  endloop
 endfacet
 facet normal 0.743146 0 -0.66913
  outer loop
   vertex 2.42705 40 198.237
   vertex 2.00739 30 197.771
   vertex 2.00739 40 197.771
  endloop
 endfacet
 facet normal 0.866022 0 -0.500006
  outer loop
   vertex 2.74064 30 198.78
   vertex 2.42705 30 198.237
   vertex 2.74064 40 198.78
  endloop
 endfacet
 facet normal 0.866022 0 -0.500006
  outer loop
   vertex 2.74064 40 198.78
   vertex 2.42705 30 198.237
   vertex 2.42705 40 198.237
  endloop
 endfacet
 facet normal 0.951058 0 -0.309014
  outer loop
   vertex 2.93444 30 199.376
   vertex 2.74064 30 198.78
   vertex 2.93444 40 199.376
  endloop
 endfacet
 facet normal 0.951058 0 -0.309014
  outer loop
   vertex 2.93444 40 199.376
   vertex 2.74064 30 198.78
   vertex 2.74064 40 198.78
  endloop
 endfacet
 facet normal 0.994522 0 -0.104529
  outer loop
   vertex 3 30 200
   vertex 2.93444 30 199.376
   vertex 3 40 200
  endloop
 endfacet
 facet normal 0.994522 0 -0.104529
  outer loop
   vertex 3 40 200
   vertex 2.93444 30 199.376
   vertex 2.93444 40 199.376
  endloop
 endfacet
 facet normal -0.994522 0 0.104529
  outer loop
   vertex -2.93444 -30 200.624
   vertex -3 -30 200
   vertex -2.93444 -40 200.624
  endloop
 endfacet
 facet normal -0.994522 0 0.104529
  outer loop
   vertex -2.93444 -40 200.624
   vertex -3 -30 200
   vertex -3 -40 200
  endloop
 endfacet
 facet normal -0.951058 0 0.309014
  outer loop
   vertex -2.74064 -30 201.22
   vertex -2.93444 -30 200.624
   vertex -2.74064 -40 201.22
  endloop
 endfacet
 facet normal -0.951058 0 0.309014
  outer loop
   vertex -2.74064 -40 201.22
   vertex -2.93444 -30 200.624
   vertex -2.93444 -40 200.624
  endloop
 endfacet
 facet normal -0.866022 0 0.500006
  outer loop
   vertex -2.42705 -30 201.763
   vertex -2.74064 -30 201.22
   vertex -2.42705 -40 201.763
  endloop
 endfacet
 facet normal -0.866022 0 0.500006
  outer loop
   vertex -2.42705 -40 201.763
   vertex -2.74064 -30 201.22
   vertex -2.74064 -40 201.22
  endloop
 endfacet
 facet normal -0.743146 0 0.66913
  outer loop
   vertex -2.00739 -30 202.229
   vertex -2.42705 -30 201.763
   vertex -2.00739 -40 202.229
  endloop
 endfacet
 facet normal -0.743146 0 0.66913
  outer loop
   vertex -2.00739 -40 202.229
   vertex -2.42705 -30 201.763
   vertex -2.42705 -40 201.763
  endloop
 endfacet
 facet normal -0.587796 0 0.809009
  outer loop
   vertex -1.5 -30 202.598
   vertex -2.00739 -30 202.229
   vertex -1.5 -40 202.598
  endloop
 endfacet
 facet normal -0.587796 0 0.809009
  outer loop
   vertex -1.5 -40 202.598
   vertex -2.00739 -30 202.229
   vertex -2.00739 -40 202.229
  endloop
 endfacet
 facet normal -0.40672 0 0.913553
  outer loop
   vertex -0.927051 -30 202.853
   vertex -1.5 -30 202.598
   vertex -0.927051 -40 202.853
  endloop
 endfacet
 facet normal -0.40672 0 0.913553
  outer loop
   vertex -0.927051 -40 202.853
   vertex -1.5 -30 202.598
   vertex -1.5 -40 202.598
  endloop
 endfacet
 facet normal -0.20792 0 0.978146
  outer loop
   vertex -0.313585 -30 202.984
   vertex -0.927051 -30 202.853
   vertex -0.313585 -40 202.984
  endloop
 endfacet
 facet normal -0.20792 0 0.978146
  outer loop
   vertex -0.313585 -40 202.984
   vertex -0.927051 -30 202.853
   vertex -0.927051 -40 202.853
  endloop
 endfacet
 facet normal -0 0 1
  outer loop
   vertex 0.313585 -30 202.984
   vertex -0.313585 -30 202.984
   vertex 0.313585 -40 202.984
  endloop
 endfacet
 facet normal 0 0 1
  outer loop
   vertex 0.313585 -40 202.984
   vertex -0.313585 -30 202.984
   vertex -0.313585 -40 202.984
  endloop
 endfacet
 facet normal 0.20792 0 0.978146
  outer loop
   vertex 0.927051 -30 202.853
   vertex 0.313585 -30 202.984
   vertex 0.927051 -40 202.853
  endloop
 endfacet
 facet normal 0.20792 0 0.978146
  outer loop
   vertex 0.927051 -40 202.853
   vertex 0.313585 -30 202.984
   vertex 0.313585 -40 202.984
  endloop
 endfacet
 facet normal 0.40672 0 0.913553
  outer loop
   vertex 1.5 -30 202.598
   vertex 0.927051 -30 202.853
   vertex 1.5 -40 202.598
  endloop
 endfacet
 facet normal 0.40672 0 0.913553
  outer loop
   vertex 1.5 -40 202.598
   vertex 0.927051 -30 202.853
   vertex 0.927051 -40 202.853
  endloop
 endfacet
 facet normal 0.587796 0 0.809009
  outer loop
   vertex 2.00739 -30 202.229
   vertex 1.5 -30 202.598
   vertex 2.00739 -40 202.229
  endloop
 endfacet
 facet normal 0.587796 0 0.809009
  outer loop
   vertex 2.00739 -40 202.229
   vertex 1.5 -30 202.598
   vertex 1.5 -40 202.598
  endloop
 endfacet
 facet normal 0.743146 0 0.66913
  outer loop
   vertex 2.42705 -30 201.763
   vertex 2.00739 -30 202.229
   vertex 2.42705 -40 201.763
  endloop
 endfacet
 facet normal 0.743146 0 0.66913
  outer loop
   vertex 2.42705 -40 201.763
   vertex 2.00739 -30 202.229
   vertex 2.00739 -40 202.229
  endloop
 endfacet
 facet normal 0.866022 0 0.500006
  outer loop
   vertex 2.74064 -30 201.22
   vertex 2.42705 -30 201.763
   vertex 2.74064 -40 201.22
  endloop
 endfacet
 facet normal 0.866022 0 0.500006
  outer loop
   vertex 2.74064 -40 201.22
   vertex 2.42705 -30 201.763
   vertex 2.42705 -40 201.763
  endloop
 endfacet
 facet normal 0.951058 0 0.309014
  outer loop
   vertex 2.93444 -30 200.624
   vertex 2.74064 -30 201.22
   vertex 2.93444 -40 200.624
  endloop
 endfacet
 facet normal 0.951058 0 0.309014
  outer loop
   vertex 2.93444 -40 200.624
   vertex 2.74064 -30 201.22
   vertex 2.74064 -40 201.22
  endloop
 endfacet
 facet normal 0.994522 0 0.104529
  outer loop
   vertex 3 -30 200
   vertex 2.93444 -30 200.624
   vertex 3 -40 200
  endloop
 endfacet
 facet normal 0.994522 0 0.104529
  outer loop
   vertex 3 -40 200
   vertex 2.93444 -30 200.624
   vertex 2.93444 -40 200.624
  endloop
 endfacet
 facet normal 0.994522 0 -0.104529
  outer loop
   vertex 2.93444 -30 199.376
   vertex 3 -30 200
   vertex 2.93444 -40 199.376
  endloop
 endfacet
 facet normal 0.994522 0 -0.104529
  outer loop
   vertex 2.93444 -40 199.376
   vertex 3 -30 200
   vertex 3 -40 200
  endloop
 endfacet
 facet normal 0.951058 0 -0.309014
  outer loop
   vertex 2.74064 -30 198.78
   vertex 2.93444 -30 199.376
   vertex 2.74064 -40 198.78
  endloop
 endfacet
 facet normal 0.951058 0 -0.309014
  outer loop
   vertex 2.74064 -40 198.78
   vertex 2.93444 -30 199.376
   vertex 2.93444 -40 199.376
  endloop
 endfacet
 facet normal 0.866022 0 -0.500006
  outer loop
   vertex 2.42705 -30 198.237
   vertex 2.74064 -30 198.78
   vertex 2.42705 -40 198.237
  endloop
 endfacet
 facet normal 0.866022 0 -0.500006
  outer loop
   vertex 2.42705 -40 198.237
   vertex 2.74064 -30 198.78
   vertex 2.74064 -40 198.78
  endloop
 endfacet
 facet normal 0.743146 0 -0.66913
  outer loop
   vertex 2.00739 -30 197.771
   vertex 2.42705 -30 198.237
   vertex 2.00739 -40 197.771
  endloop
 endfacet
 facet normal 0.743146 0 -0.66913
  outer loop
   vertex 2.00739 -40 197.771
   vertex 2.42705 -30 198.237
   vertex 2.42705 -40 198.237
  endloop
 endfacet
 facet normal 0.587796 0 -0.809009
  outer loop
   vertex 1.5 -30 197.402
   vertex 2.00739 -30 197.771
   vertex 1.5 -40 197.402
  endloop
 endfacet
 facet normal 0.587796 0 -0.809009
  outer loop
   vertex 1.5 -40 197.402
   vertex 2.00739 -30 197.771
   vertex 2.00739 -40 197.771
  endloop
 endfacet
 facet normal 0.40672 0 -0.913553
  outer loop
   vertex 0.927051 -30 197.147
   vertex 1.5 -30 197.402
   vertex 0.927051 -40 197.147
  endloop
 endfacet
 facet normal 0.40672 0 -0.913553
  outer loop
   vertex 0.927051 -40 197.147
   vertex 1.5 -30 197.402
   vertex 1.5 -40 197.402
  endloop
 endfacet
 facet normal 0.20792 0 -0.978146
  outer loop
   vertex 0.313585 -30 197.016
   vertex 0.927051 -30 197.147
   vertex 0.313585 -40 197.016
  endloop
 endfacet
 facet normal 0.20792 0 -0.978146
  outer loop
   vertex 0.313585 -40 197.016
   vertex 0.927051 -30 197.147
   vertex 0.927051 -40 197.147
  endloop
 endfacet
 facet normal -0 0 -1
  outer loop
   vertex -0.313585 -30 197.016
   vertex 0.313585 -30 197.016
   vertex -0.313585 -40 197.016
  endloop
 endfacet
 facet normal 0 -0 -1
  outer loop
   vertex -0.313585 -40 197.016
   vertex 0.313585 -30 197.016
   vertex 0.313585 -40 197.016
  endloop
 endfacet
 facet normal -0.20792 0 -0.978146
  outer loop
   vertex -0.927051 -30 197.147
   vertex -0.313585 -30 197.016
   vertex -0.927051 -40 197.147
  endloop
 endfacet
 facet normal -0.20792 -0 -0.978146
  outer loop
   vertex -0.927051 -40 197.147
   vertex -0.313585 -30 197.016
   vertex -0.313585 -40 197.016
  endloop
 endfacet
 facet normal -0.40672 0 -0.913553
  outer loop
   vertex -1.5 -30 197.402
   vertex -0.927051 -30 197.147
   vertex -1.5 -40 197.402
  endloop
 endfacet
 facet normal -0.40672 -0 -0.913553
  outer loop
   vertex -1.5 -40 197.402
   vertex -0.927051 -30 197.147
   vertex -0.927051 -40 197.147
  endloop
 endfacet
 facet normal -0.587796 0 -0.809009
  outer loop
   vertex -2.00739 -30 197.771
   vertex -1.5 -30 197.402
   vertex -2.00739 -40 197.771
  endloop
 endfacet
 facet normal -0.587796 -0 -0.809009
  outer loop
   vertex -2.00739 -40 197.771
   vertex -1.5 -30 197.402
   vertex -1.5 -40 197.402
  endloop
 endfacet
 facet normal -0.743146 0 -0.66913
  outer loop
   vertex -2.42705 -30 198.237
   vertex -2.00739 -30 197.771
   vertex -2.42705 -40 198.237
  endloop
 endfacet
 facet normal -0.743146 -0 -0.66913
  outer loop
   vertex -2.42705 -40 198.237
   vertex -2.00739 -30 197.771
   vertex -2.00739 -40 197.771
  endloop
 endfacet
 facet normal -0.866022 0 -0.500006
  outer loop
   vertex -2.74064 -30 198.78
   vertex -2.42705 -30 198.237
   vertex -2.74064 -40 198.78
  endloop
 endfacet
 facet normal -0.866022 -0 -0.500006
  outer loop
   vertex -2.74064 -40 198.78
   vertex -2.42705 -30 198.237
   vertex -2.42705 -40 198.237
  endloop
 endfacet
 facet normal -0.951058 0 -0.309014
  outer loop
   vertex -2.93444 -30 199.376
   vertex -2.74064 -30 198.78
   vertex -2.93444 -40 199.376
  endloop
 endfacet
 facet normal -0.951058 -0 -0.309014
  outer loop
   vertex -2.93444 -40 199.376
   vertex -2.74064 -30 198.78
   vertex -2.74064 -40 198.78
  endloop
 endfacet
 facet normal -0.994522 0 -0.104529
  outer loop
   vertex -3 -30 200
   vertex -2.93444 -30 199.376
   vertex -3 -40 200
  endloop
 endfacet
 facet normal -0.994522 -0 -0.104529
  outer loop
   vertex -3 -40 200
   vertex -2.93444 -30 199.376
   vertex -2.93444 -40 199.376
  endloop
 endfacet
 facet normal 0 0.10452 0.994523
  outer loop
   vertex 30 0.623735 202.934
   vertex 30 0 203
   vertex 40 0.623735 202.934
  endloop
 endfacet
 facet normal -0 0.10452 0.994523
  outer loop
   vertex 40 0.623735 202.934
   vertex 30 0 203
   vertex 40 0 203
  endloop
 endfacet
 facet normal 0 0.309032 0.951052
  outer loop
   vertex 30 1.22021 202.741
   vertex 30 0.623735 202.934
   vertex 40 1.22021 202.741
  endloop
 endfacet
 facet normal -0 0.309032 0.951052
  outer loop
   vertex 40 1.22021 202.741
   vertex 30 0.623735 202.934
   vertex 40 0.623735 202.934
  endloop
 endfacet
 facet normal 0 0.499998 0.866027
  outer loop
   vertex 30 1.76336 202.427
   vertex 30 1.22021 202.741
   vertex 40 1.76336 202.427
  endloop
 endfacet
 facet normal -0 0.499998 0.866027
  outer loop
   vertex 40 1.76336 202.427
   vertex 30 1.22021 202.741
   vertex 40 1.22021 202.741
  endloop
 endfacet
 facet normal 0 0.669133 0.743142
  outer loop
   vertex 30 2.22943 202.007
   vertex 30 1.76336 202.427
   vertex 40 2.22943 202.007
  endloop
 endfacet
 facet normal -0 0.669133 0.743142
  outer loop
   vertex 40 2.22943 202.007
   vertex 30 1.76336 202.427
   vertex 40 1.76336 202.427
  endloop
 endfacet
 facet normal 0 0.809013 0.58779
  outer loop
   vertex 30 2.59808 201.5
   vertex 30 2.22943 202.007
   vertex 40 2.59808 201.5
  endloop
 endfacet
 facet normal -0 0.809013 0.58779
  outer loop
   vertex 40 2.59808 201.5
   vertex 30 2.22943 202.007
   vertex 40 2.22943 202.007
  endloop
 endfacet
 facet normal 0 0.913546 0.406735
  outer loop
   vertex 30 2.85317 200.927
   vertex 30 2.59808 201.5
   vertex 40 2.85317 200.927
  endloop
 endfacet
 facet normal -0 0.913546 0.406735
  outer loop
   vertex 40 2.85317 200.927
   vertex 30 2.59808 201.5
   vertex 40 2.59808 201.5
  endloop
 endfacet
 facet normal 0 0.978148 0.207912
  outer loop
   vertex 30 2.98357 200.314
   vertex 30 2.85317 200.927
   vertex 40 2.98357 200.314
  endloop
 endfacet
 facet normal -0 0.978148 0.207912
  outer loop
   vertex 40 2.98357 200.314
   vertex 30 2.85317 200.927
   vertex 40 2.85317 200.927
  endloop
 endfacet
 facet normal 0 1 0
  outer loop
   vertex 30 2.98357 199.686
   vertex 30 2.98357 200.314
   vertex 40 2.98357 199.686
  endloop
 endfacet
 facet normal -0 1 0
  outer loop
   vertex 40 2.98357 199.686
   vertex 30 2.98357 200.314
   vertex 40 2.98357 200.314
  endloop
 endfacet
 facet normal 0 0.978148 -0.207912
  outer loop
   vertex 30 2.85317 199.073
   vertex 30 2.98357 199.686
   vertex 40 2.85317 199.073
  endloop
 endfacet
 facet normal 0 0.978148 -0.207912
  outer loop
   vertex 40 2.85317 199.073
   vertex 30 2.98357 199.686
   vertex 40 2.98357 199.686
  endloop
 endfacet
 facet normal 0 0.913546 -0.406735
  outer loop
   vertex 30 2.59808 198.5
   vertex 30 2.85317 199.073
   vertex 40 2.59808 198.5
  endloop
 endfacet
 facet normal 0 0.913546 -0.406735
  outer loop
   vertex 40 2.59808 198.5
   vertex 30 2.85317 199.073
   vertex 40 2.85317 199.073
  endloop
 endfacet
 facet normal 0 0.809013 -0.58779
  outer loop
   vertex 30 2.22943 197.993
   vertex 30 2.59808 198.5
   vertex 40 2.22943 197.993
  endloop
 endfacet
 facet normal 0 0.809013 -0.58779
  outer loop
   vertex 40 2.22943 197.993
   vertex 30 2.59808 198.5
   vertex 40 2.59808 198.5
  endloop
 endfacet
 facet normal 0 0.669133 -0.743142
  outer loop
   vertex 30 1.76336 197.573
   vertex 30 2.22943 197.993
   vertex 40 1.76336 197.573
  endloop
 endfacet
 facet normal 0 0.669133 -0.743142
  outer loop
   vertex 40 1.76336 197.573
   vertex 30 2.22943 197.993
   vertex 40 2.22943 197.993
  endloop
 endfacet
 facet normal 0 0.499998 -0.866027
  outer loop
   vertex 30 1.22021 197.259
   vertex 30 1.76336 197.573
   vertex 40 1.22021 197.259
  endloop
 endfacet
 facet normal 0 0.499998 -0.866027
  outer loop
   vertex 40 1.22021 197.259
   vertex 30 1.76336 197.573
   vertex 40 1.76336 197.573
  endloop
 endfacet
 facet normal 0 0.309032 -0.951052
  outer loop
   vertex 30 0.623735 197.066
   vertex 30 1.22021 197.259
   vertex 40 0.623735 197.066
  endloop
 endfacet
 facet normal 0 0.309032 -0.951052
  outer loop
   vertex 40 0.623735 197.066
   vertex 30 1.22021 197.259
   vertex 40 1.22021 197.259
  endloop
 endfacet
 facet normal 0 0.10452 -0.994523
  outer loop
   vertex 30 3.67394e-16 197
   vertex 30 0.623735 197.066
   vertex 40 3.67394e-16 197
  endloop
 endfacet
 facet normal 0 0.10452 -0.994523
  outer loop
   vertex 40 3.67394e-16 197
   vertex 30 0.623735 197.066
   vertex 40 0.623735 197.066
  endloop
 endfacet
 facet normal 0 -0.10452 -0.994523
  outer loop
   vertex 30 -0.623735 197.066
   vertex 30 3.67394e-16 197
   vertex 40 -0.623735 197.066
  endloop
 endfacet
 facet normal 0 -0.10452 -0.994523
  outer loop
   vertex 40 -0.623735 197.066
   vertex 30 3.67394e-16 197
   vertex 40 3.67394e-16 197
  endloop
 endfacet
 facet normal 0 -0.309032 -0.951052
  outer loop
   vertex 30 -1.22021 197.259
   vertex 30 -0.623735 197.066
   vertex 40 -1.22021 197.259
  endloop
 endfacet
 facet normal 0 -0.309032 -0.951052
  outer loop
   vertex 40 -1.22021 197.259
   vertex 30 -0.623735 197.066
   vertex 40 -0.623735 197.066
  endloop
 endfacet
 facet normal 0 -0.499998 -0.866027
  outer loop
   vertex 30 -1.76336 197.573
   vertex 30 -1.22021 197.259
   vertex 40 -1.76336 197.573
  endloop
 endfacet
 facet normal 0 -0.499998 -0.866027
  outer loop
   vertex 40 -1.76336 197.573
   vertex 30 -1.22021 197.259
   vertex 40 -1.22021 197.259
  endloop
 endfacet
 facet normal 0 -0.669133 -0.743142
  outer loop
   vertex 30 -2.22943 197.993
   vertex 30 -1.76336 197.573
   vertex 40 -2.22943 197.993
  endloop
 endfacet
 facet normal 0 -0.669133 -0.743142
  outer loop
   vertex 40 -2.22943 197.993
   vertex 30 -1.76336 197.573
   vertex 40 -1.76336 197.573
  endloop
 endfacet
 facet normal 0 -0.809013 -0.58779
  outer loop
   vertex 30 -2.59808 198.5
   vertex 30 -2.22943 197.993
   vertex 40 -2.59808 198.5
  endloop
 endfacet
 facet normal 0 -0.809013 -0.58779
  outer loop
   vertex 40 -2.59808 198.5
   vertex 30 -2.22943 197.993
   vertex 40 -2.22943 197.993
  endloop
 endfacet
 facet normal 0 -0.913546 -0.406735
  outer loop
   vertex 30 -2.85317 199.073
   vertex 30 -2.59808 198.5
   vertex 40 -2.85317 199.073
  endloop
 endfacet
 facet normal 0 -0.913546 -0.406735
  outer loop
   vertex 40 -2.85317 199.073
   vertex 30 -2.59808 198.5
   vertex 40 -2.59808 198.5
  endloop
 endfacet
 facet normal 0 -0.978148 -0.207912
  outer loop
   vertex 30 -2.98357 199.686
   vertex 30 -2.85317 199.073
   vertex 40 -2.98357 199.686
  endloop
 endfacet
 facet normal 0 -0.978148 -0.207912
  outer loop
   vertex 40 -2.98357 199.686
   vertex 30 -2.85317 199.073
   vertex 40 -2.85317 199.073
  endloop
 endfacet
 facet normal 0 -1 0
  outer loop
   vertex 30 -2.98357 200.314
   vertex 30 -2.98357 199.686
   vertex 40 -2.98357 200.314
  endloop
 endfacet
 facet normal 0 -1 0
  outer loop
   vertex 40 -2.98357 200.314
   vertex 30 -2.98357 199.686
   vertex 40 -2.98357 199.686
  endloop
 endfacet
 facet normal 0 -0.978148 0.207912
  outer loop
   vertex 30 -2.85317 200.927
   vertex 30 -2.98357 200.314
   vertex 40 -2.85317 200.927
  endloop
 endfacet
 facet normal 0 -0.978148 0.207912
  outer loop
   vertex 40 -2.85317 200.927
   vertex 30 -2.98357 200.314
   vertex 40 -2.98357 200.314
  endloop
 endfacet
 facet normal 0 -0.913546 0.406735
  outer loop
   vertex 30 -2.59808 201.5
   vertex 30 -2.85317 200.927
   vertex 40 -2.59808 201.5
  endloop
 endfacet
 facet normal 0 -0.913546 0.406735
  outer loop
   vertex 40 -2.59808 201.5
   vertex 30 -2.85317 200.927
   vertex 40 -2.85317 200.927
  endloop
 endfacet
 facet normal 0 -0.809013 0.58779
  outer loop
   vertex 30 -2.22943 202.007
   vertex 30 -2.59808 201.5
   vertex 40 -2.22943 202.007
  endloop
 endfacet
 facet normal 0 -0.809013 0.58779
  outer loop
   vertex 40 -2.22943 202.007
   vertex 30 -2.59808 201.5
   vertex 40 -2.59808 201.5
  endloop
 endfacet
 facet normal 0 -0.669133 0.743142
  outer loop
   vertex 30 -1.76336 202.427
   vertex 30 -2.22943 202.007
   vertex 40 -1.76336 202.427
  endloop
 endfacet
 facet normal 0 -0.669133 0.743142
  outer loop
   vertex 40 -1.76336 202.427
   vertex 30 -2.22943 202.007
   vertex 40 -2.22943 202.007
  endloop
 endfacet
 facet normal 0 -0.499998 0.866027
  outer loop
   vertex 30 -1.22021 202.741
   vertex 30 -1.76336 202.427
   vertex 40 -1.22021 202.741
  endloop
 endfacet
 facet normal 0 -0.499998 0.866027
  outer loop
   vertex 40 -1.22021 202.741
   vertex 30 -1.76336 202.427
   vertex 40 -1.76336 202.427
  endloop
 endfacet
 facet normal 0 -0.309032 0.951052
  outer loop
   vertex 30 -0.623735 202.934
   vertex 30 -1.22021 202.741
   vertex 40 -0.623735 202.934
  endloop
 endfacet
 facet normal 0 -0.309032 0.951052
  outer loop
   vertex 40 -0.623735 202.934
   vertex 30 -1.22021 202.741
   vertex 40 -1.22021 202.741
  endloop
 endfacet
 facet normal 0 -0.10452 0.994523
  outer loop
   vertex 30 0 203
   vertex 30 -0.623735 202.934
   vertex 40 0 203
  endloop
 endfacet
 facet normal 0 -0.10452 0.994523
  outer loop
   vertex 40 0 203
   vertex 30 -0.623735 202.934
   vertex 40 -0.623735 202.934
  endloop
 endfacet
 facet normal 0 0.10452 -0.994523
  outer loop
   vertex -30 0.623735 197.066
   vertex -30 0 197
   vertex -40 0.623735 197.066
  endloop
 endfacet
 facet normal 0 0.10452 -0.994523
  outer loop
   vertex -40 0.623735 197.066
   vertex -30 0 197
   vertex -40 0 197
  endloop
 endfacet
 facet normal 0 0.309032 -0.951052
  outer loop
   vertex -30 1.22021 197.259
   vertex -30 0.623735 197.066
   vertex -40 1.22021 197.259
  endloop
 endfacet
 facet normal 0 0.309032 -0.951052
  outer loop
   vertex -40 1.22021 197.259
   vertex -30 0.623735 197.066
   vertex -40 0.623735 197.066
  endloop
 endfacet
 facet normal 0 0.499998 -0.866027
  outer loop
   vertex -30 1.76336 197.573
   vertex -30 1.22021 197.259
   vertex -40 1.76336 197.573
  endloop
 endfacet
 facet normal 0 0.499998 -0.866027
  outer loop
   vertex -40 1.76336 197.573
   vertex -30 1.22021 197.259
   vertex -40 1.22021 197.259
  endloop
 endfacet
 facet normal 0 0.669133 -0.743142
  outer loop
   vertex -30 2.22943 197.993
   vertex -30 1.76336 197.573
   vertex -40 2.22943 197.993
  endloop
 endfacet
 facet normal 0 0.669133 -0.743142
  outer loop
   vertex -40 2.22943 197.993
   vertex -30 1.76336 197.573
   vertex -40 1.76336 197.573
  endloop
 endfacet
 facet normal 0 0.809013 -0.58779
  outer loop
   vertex -30 2.59808 198.5
   vertex -30 2.22943 197.993
   vertex -40 2.59808 198.5
  endloop
 endfacet
 facet normal 0 0.809013 -0.58779
  outer loop
   vertex -40 2.59808 198.5
   vertex -30 2.22943 197.993
   vertex -40 2.22943 197.993
  endloop
 endfacet
 facet normal 0 0.913546 -0.406735
  outer loop
   vertex -30 2.85317 199.073
   vertex -30 2.59808 198.5
   vertex -40 2.85317 199.073
  endloop
 endfacet
 facet normal 0 0.913546 -0.406735
  outer loop
   vertex -40 2.85317 199.073
   vertex -30 2.59808 198.5
   vertex -40 2.59808 198.5
  endloop
 endfacet
 facet normal 0 0.978148 -0.207912
  outer loop
   vertex -30 2.98357 199.686
   vertex -30 2.85317 199.073
   vertex -40 2.98357 199.686
  endloop
 endfacet
 facet normal 0 0.978148 -0.207912
  outer loop
   vertex -40 2.98357 199.686
   vertex -30 2.85317 199.073
   vertex -40 2.85317 199.073
  endloop
 endfacet
 facet normal 0 1 -0
  outer loop
   vertex -30 2.98357 200.314
   vertex -30 2.98357 199.686
   vertex -40 2.98357 200.314
  endloop
 endfacet
 facet normal 0 1 0
  outer loop
   vertex -40 2.98357 200.314
   vertex -30 2.98357 199.686
   vertex -40 2.98357 199.686
  endloop
 endfacet
 facet normal 0 0.978148 0.207912
  outer loop
   vertex -30 2.85317 200.927
   vertex -30 2.98357 200.314
   vertex -40 2.85317 200.927
  endloop
 endfacet
 facet normal 0 0.978148 0.207912
  outer loop
   vertex -40 2.85317 200.927
   vertex -30 2.98357 200.314
   vertex -40 2.98357 200.314
  endloop
 endfacet
 facet normal 0 0.913546 0.406735
  outer loop
   vertex -30 2.59808 201.5
   vertex -30 2.85317 200.927
   vertex -40 2.59808 201.5
  endloop
 endfacet
 facet normal 0 0.913546 0.406735
  outer loop
   vertex -40 2.59808 201.5
   vertex -30 2.85317 200.927
   vertex -40 2.85317 200.927
  endloop
 endfacet
 facet normal 0 0.809013 0.58779
  outer loop
   vertex -30 2.22943 202.007
   vertex -30 2.59808 201.5
   vertex -40 2.22943 202.007
  endloop
 endfacet
 facet normal 0 0.809013 0.58779
  outer loop
   vertex -40 2.22943 202.007
   vertex -30 2.59808 201.5
   vertex -40 2.59808 201.5
  endloop
 endfacet
 facet normal 0 0.669133 0.743142
  outer loop
   vertex -30 1.76336 202.427
   vertex -30 2.22943 202.007
   vertex -40 1.76336 202.427
  endloop
 endfacet
 facet normal 0 0.669133 0.743142
  outer loop
   vertex -40 1.76336 202.427
   vertex -30 2.22943 202.007
   vertex -40 2.22943 202.007
  endloop
 endfacet
 facet normal 0 0.499998 0.866027
  outer loop
   vertex -30 1.22021 202.741
   vertex -30 1.76336 202.427
   vertex -40 1.22021 202.741
  endloop
 endfacet
 facet normal 0 0.499998 0.866027
  outer loop
   vertex -40 1.22021 202.741
   vertex -30 1.76336 202.427
   vertex -40 1.76336 202.427
  endloop
 endfacet
 facet normal 0 0.309032 0.951052
  outer loop
   vertex -30 0.623735 202.934
   vertex -30 1.22021 202.741
   vertex -40 0.623735 202.934
  endloop
 endfacet
 facet normal 0 0.309032 0.951052
  outer loop
   vertex -40 0.623735 202.934
   vertex -30 1.22021 202.741
   vertex -40 1.22021 202.741
  endloop
 endfacet
 facet normal 0 0.10452 0.994523
  outer loop
   vertex -30 3.67394e-16 203
   vertex -30 0.623735 202.934
   vertex -40 3.67394e-16 203
  endloop
 endfacet
 facet normal 0 0.10452 0.994523
  outer loop
   vertex -40 3.67394e-16 203
   vertex -30 0.623735 202.934
   vertex -40 0.623735 202.934
  endloop
 endfacet
 facet normal 0 -0.10452 0.994523
  outer loop
   vertex -30 -0.623735 202.934
   vertex -30 3.67394e-16 203
   vertex -40 -0.623735 202.934
  endloop
 endfacet
 facet normal 0 -0.10452 0.994523
  outer loop
   vertex -40 -0.623735 202.934
   vertex -30 3.67394e-16 203
   vertex -40 3.67394e-16 203
  endloop
 endfacet
 facet normal 0 -0.309032 0.951052
  outer loop
   vertex -30 -1.22021 202.741
   vertex -30 -0.623735 202.934
   vertex -40 -1.22021 202.741
  endloop
 endfacet
 facet normal 0 -0.309032 0.951052
  outer loop
   vertex -40 -1.22021 202.741
   vertex -30 -0.623735 202.934
   vertex -40 -0.623735 202.934
  endloop
 endfacet
 facet normal 0 -0.499998 0.866027
  outer loop
   vertex -30 -1.76336 202.427
   vertex -30 -1.22021 202.741
   vertex -40 -1.76336 202.427
  endloop
 endfacet
 facet normal 0 -0.499998 0.866027
  outer loop
   vertex -40 -1.76336 202.427
   vertex -30 -1.22021 202.741
   vertex -40 -1.22021 202.741
  endloop
 endfacet
 facet normal 0 -0.669133 0.743142
  outer loop
   vertex -30 -2.22943 202.007
   vertex -30 -1.76336 202.427
   vertex -40 -2.22943 202.007
  endloop
 endfacet
 facet normal 0 -0.669133 0.743142
  outer loop
   vertex -40 -2.22943 202.007
   vertex -30 -1.76336 202.427
   vertex -40 -1.76336 202.427
  endloop
 endfacet
 facet normal 0 -0.809013 0.58779
  outer loop
   vertex -30 -2.59808 201.5
   vertex -30 -2.22943 202.007
   vertex -40 -2.59808 201.5
  endloop
 endfacet
 facet normal 0 -0.809013 0.58779
  outer loop
   vertex -40 -2.59808 201.5
   vertex -30 -2.22943 202.007
   vertex -40 -2.22943 202.007
  endloop
 endfacet
 facet normal 0 -0.913546 0.406735
  outer loop
   vertex -30 -2.85317 200.927
   vertex -30 -2.59808 201.5
   vertex -40 -2.85317 200.927
  endloop
 endfacet
 facet normal 0 -0.913546 0.406735
  outer loop
   vertex -40 -2.85317 200.927
   vertex -30 -2.59808 201.5
   vertex -40 -2.59808 201.5
  endloop
 endfacet
 facet normal 0 -0.978148 0.207912
  outer loop
   vertex -30 -2.98357 200.314
   vertex -30 -2.85317 200.927
   vertex -40 -2.98357 200.314
  endloop
 endfacet
 facet normal 0 -0.978148 0.207912
  outer loop
   vertex -40 -2.98357 200.314
   vertex -30 -2.85317 200.927
   vertex -40 -2.85317 200.927
  endloop
 endfacet
 facet normal 0 -1 -0
  outer loop
   vertex -30 -2.98357 199.686
   vertex -30 -2.98357 200.314
   vertex -40 -2.98357 199.686
  endloop
 endfacet
 facet normal -0 -1 0
  outer loop
   vertex -40 -2.98357 199.686
   vertex -30 -2.98357 200.314
   vertex -40 -2.98357 200.314
  endloop
 endfacet
 facet normal 0 -0.978148 -0.207912
  outer loop
   vertex -30 -2.85317 199.073
   vertex -30 -2.98357 199.686
   vertex -40 -2.85317 199.073
  endloop
 endfacet
 facet normal -0 -0.978148 -0.207912
  outer loop
   vertex -40 -2.85317 199.073
   vertex -30 -2.98357 199.686
   vertex -40 -2.98357 199.686
  endloop
 endfacet
 facet normal 0 -0.913546 -0.406735
  outer loop
   vertex -30 -2.59808 198.5
   vertex -30 -2.85317 199.073
   vertex -40 -2.59808 198.5
  endloop
 endfacet
 facet normal -0 -0.913546 -0.406735
  outer loop
   vertex -40 -2.59808 198.5
   vertex -30 -2.85317 199.073
   vertex -40 -2.85317 199.073
  endloop
 endfacet
 facet normal 0 -0.809013 -0.58779
  outer loop
   vertex -30 -2.22943 197.993
   vertex -30 -2.59808 198.5
   vertex -40 -2.22943 197.993
  endloop
 endfacet
 facet normal -0 -0.809013 -0.58779
  outer loop
   vertex -40 -2.22943 197.993
   vertex -30 -2.59808 198.5
   vertex -40 -2.59808 198.5
  endloop
 endfacet
 facet normal 0 -0.669133 -0.743142
  outer loop
   vertex -30 -1.76336 197.573
   vertex -30 -2.22943 197.993
   vertex -40 -1.76336 197.573
  endloop
 endfacet
 facet normal -0 -0.669133 -0.743142
  outer loop
   vertex -40 -1.76336 197.573
   vertex -30 -2.22943 197.993
   vertex -40 -2.22943 197.993
  endloop
 endfacet
 facet normal 0 -0.499998 -0.866027
  outer loop
   vertex -30 -1.22021 197.259
   vertex -30 -1.76336 197.573
   vertex -40 -1.22021 197.259
  endloop
 endfacet
 facet normal -0 -0.499998 -0.866027
  outer loop
   vertex -40 -1.22021 197.259
   vertex -30 -1.76336 197.573
   vertex -40 -1.76336 197.573
  endloop
 endfacet
 facet normal 0 -0.309032 -0.951052
  outer loop
   vertex -30 -0.623735 197.066
   vertex -30 -1.22021 197.259
   vertex -40 -0.623735 197.066
  endloop
 endfacet
 facet normal -0 -0.309032 -0.951052
  outer loop
   vertex -40 -0.623735 197.066
   vertex -30 -1.22021 197.259
   vertex -40 -1.22021 197.259
  endloop
 endfacet
 facet normal 0 -0.10452 -0.994523
  outer loop
   vertex -30 0 197
   vertex -30 -0.623735 197.066
   vertex -40 0 197
  endloop
 endfacet
 facet normal -0 -0.10452 -0.994523
  outer loop
   vertex -40 0 197
   vertex -30 -0.623735 197.066
   vertex -40 -0.623735 197.066
  endloop
 endfacet
 facet normal -0.0739067 0.0739067 0.994523
  outer loop
   vertex 29.559 30.441 202.934
   vertex 30 30 203
   vertex 39.559 40.441 202.934
  endloop
 endfacet
 facet normal -0.0739067 0.0739067 0.994523
  outer loop
   vertex 39.559 40.441 202.934
   vertex 30 30 203
   vertex 40 40 203
  endloop
 endfacet
 facet normal -0.21852 0.21852 0.951051
  outer loop
   vertex 29.1372 30.8628 202.741
   vertex 29.559 30.441 202.934
   vertex 39.1372 40.8628 202.741
  endloop
 endfacet
 facet normal -0.218519 0.218519 0.951052
  outer loop
   vertex 39.1372 40.8628 202.741
   vertex 29.559 30.441 202.934
   vertex 39.559 40.441 202.934
  endloop
 endfacet
 facet normal -0.35355 0.353551 0.866028
  outer loop
   vertex 28.7531 31.2469 202.427
   vertex 29.1372 30.8628 202.741
   vertex 38.7531 41.2469 202.427
  endloop
 endfacet
 facet normal -0.353553 0.353553 0.866026
  outer loop
   vertex 38.7531 41.2469 202.427
   vertex 29.1372 30.8628 202.741
   vertex 39.1372 40.8628 202.741
  endloop
 endfacet
 facet normal -0.473149 0.473149 0.743142
  outer loop
   vertex 28.4236 31.5764 202.007
   vertex 28.7531 31.2469 202.427
   vertex 38.4236 41.5764 202.007
  endloop
 endfacet
 facet normal -0.473149 0.473149 0.743142
  outer loop
   vertex 38.4236 41.5764 202.007
   vertex 28.7531 31.2469 202.427
   vertex 38.7531 41.2469 202.427
  endloop
 endfacet
 facet normal -0.572058 0.572058 0.587791
  outer loop
   vertex 28.1629 31.8371 201.5
   vertex 28.4236 31.5764 202.007
   vertex 38.1629 41.8371 201.5
  endloop
 endfacet
 facet normal -0.572058 0.572058 0.587791
  outer loop
   vertex 38.1629 41.8371 201.5
   vertex 28.4236 31.5764 202.007
   vertex 38.4236 41.5764 202.007
  endloop
 endfacet
 facet normal -0.645975 0.645976 0.406732
  outer loop
   vertex 27.9825 32.0175 200.927
   vertex 28.1629 31.8371 201.5
   vertex 37.9825 42.0175 200.927
  endloop
 endfacet
 facet normal -0.645975 0.645975 0.406734
  outer loop
   vertex 37.9825 42.0175 200.927
   vertex 28.1629 31.8371 201.5
   vertex 38.1629 41.8371 201.5
  endloop
 endfacet
 facet normal -0.691655 0.691655 0.207912
  outer loop
   vertex 27.8903 32.1097 200.314
   vertex 27.9825 32.0175 200.927
   vertex 37.8903 42.1097 200.314
  endloop
 endfacet
 facet normal -0.691654 0.691654 0.207914
  outer loop
   vertex 37.8903 42.1097 200.314
   vertex 27.9825 32.0175 200.927
   vertex 37.9825 42.0175 200.927
  endloop
 endfacet
 facet normal -0.707107 0.707107 0
  outer loop
   vertex 27.8903 32.1097 199.686
   vertex 27.8903 32.1097 200.314
   vertex 37.8903 42.1097 199.686
  endloop
 endfacet
 facet normal -0.707107 0.707107 0
  outer loop
   vertex 37.8903 42.1097 199.686
   vertex 27.8903 32.1097 200.314
   vertex 37.8903 42.1097 200.314
  endloop
 endfacet
 facet normal -0.691655 0.691655 -0.207912
  outer loop
   vertex 27.9825 32.0175 199.073
   vertex 27.8903 32.1097 199.686
   vertex 37.9825 42.0175 199.073
  endloop
 endfacet
 facet normal -0.691654 0.691654 -0.207914
  outer loop
   vertex 37.9825 42.0175 199.073
   vertex 27.8903 32.1097 199.686
   vertex 37.8903 42.1097 199.686
  endloop
 endfacet
 facet normal -0.645975 0.645976 -0.406732
  outer loop
   vertex 28.1629 31.8371 198.5
   vertex 27.9825 32.0175 199.073
   vertex 38.1629 41.8371 198.5
  endloop
 endfacet
 facet normal -0.645975 0.645975 -0.406734
  outer loop
   vertex 38.1629 41.8371 198.5
   vertex 27.9825 32.0175 199.073
   vertex 37.9825 42.0175 199.073
  endloop
 endfacet
 facet normal -0.572058 0.572058 -0.587791
  outer loop
   vertex 28.4236 31.5764 197.993
   vertex 28.1629 31.8371 198.5
   vertex 38.4236 41.5764 197.993
  endloop
 endfacet
 facet normal -0.572058 0.572058 -0.587791
  outer loop
   vertex 38.4236 41.5764 197.993
   vertex 28.1629 31.8371 198.5
   vertex 38.1629 41.8371 198.5
  endloop
 endfacet
 facet normal -0.473149 0.473149 -0.743142
  outer loop
   vertex 28.7531 31.2469 197.573
   vertex 28.4236 31.5764 197.993
   vertex 38.7531 41.2469 197.573
  endloop
 endfacet
 facet normal -0.473149 0.473149 -0.743142
  outer loop
   vertex 38.7531 41.2469 197.573
   vertex 28.4236 31.5764 197.993
   vertex 38.4236 41.5764 197.993
  endloop
 endfacet
 facet normal -0.353551 0.35355 -0.866028
  outer loop
   vertex 29.1372 30.8628 197.259
   vertex 28.7531 31.2469 197.573
   vertex 39.1372 40.8628 197.259
  endloop
 endfacet
 facet normal -0.353553 0.353553 -0.866026
  outer loop
   vertex 39.1372 40.8628 197.259
   vertex 28.7531 31.2469 197.573
   vertex 38.7531 41.2469 197.573
  endloop
 endfacet
 facet normal -0.21852 0.21852 -0.951051
  outer loop
   vertex 29.559 30.441 197.066
   vertex 29.1372 30.8628 197.259
   vertex 39.559 40.441 197.066
  endloop
 endfacet
 facet normal -0.218519 0.218519 -0.951052
  outer loop
   vertex 39.559 40.441 197.066
   vertex 29.1372 30.8628 197.259
   vertex 39.1372 40.8628 197.259
  endloop
 endfacet
 facet normal -0.0739067 0.0739067 -0.994523
  outer loop
   vertex 30 30 197
   vertex 29.559 30.441 197.066
   vertex 40 40 197
  endloop
 endfacet
 facet normal -0.0739067 0.0739067 -0.994523
  outer loop
   vertex 40 40 197
   vertex 29.559 30.441 197.066
   vertex 39.559 40.441 197.066
  endloop
 endfacet
 facet normal 0.0739067 -0.0739067 -0.994523
  outer loop
   vertex 30.441 29.559 197.066
   vertex 30 30 197
   vertex 40.441 39.559 197.066
  endloop
 endfacet
 facet normal 0.0739067 -0.0739067 -0.994523
  outer loop
   vertex 40.441 39.559 197.066
   vertex 30 30 197
   vertex 40 40 197
  endloop
 endfacet
 facet normal 0.21852 -0.21852 -0.951051
  outer loop
   vertex 30.8628 29.1372 197.259
   vertex 30.441 29.559 197.066
   vertex 40.8628 39.1372 197.259
  endloop
 endfacet
 facet normal 0.218519 -0.218519 -0.951052
  outer loop
   vertex 40.8628 39.1372 197.259
   vertex 30.441 29.559 197.066
   vertex 40.441 39.559 197.066
  endloop
 endfacet
 facet normal 0.353551 -0.35355 -0.866028
  outer loop
   vertex 31.2469 28.7531 197.573
   vertex 30.8628 29.1372 197.259
   vertex 41.2469 38.7531 197.573
  endloop
 endfacet
 facet normal 0.353553 -0.353553 -0.866026
  outer loop
   vertex 41.2469 38.7531 197.573
   vertex 30.8628 29.1372 197.259
   vertex 40.8628 39.1372 197.259
  endloop
 endfacet
 facet normal 0.473149 -0.473149 -0.743142
  outer loop
   vertex 31.5764 28.4236 197.993
   vertex 31.2469 28.7531 197.573
   vertex 41.5764 38.4236 197.993
  endloop
 endfacet
 facet normal 0.473149 -0.473149 -0.743142
  outer loop
   vertex 41.5764 38.4236 197.993
   vertex 31.2469 28.7531 197.573
   vertex 41.2469 38.7531 197.573
  endloop
 endfacet
 facet normal 0.572058 -0.572058 -0.587791
  outer loop
   vertex 31.8371 28.1629 198.5
   vertex 31.5764 28.4236 197.993
   vertex 41.8371 38.1629 198.5
  endloop
 endfacet
 facet normal 0.572058 -0.572058 -0.587791
  outer loop
   vertex 41.8371 38.1629 198.5
   vertex 31.5764 28.4236 197.993
   vertex 41.5764 38.4236 197.993
  endloop
 endfacet
 facet normal 0.645976 -0.645975 -0.406732
  outer loop
   vertex 32.0175 27.9825 199.073
   vertex 31.8371 28.1629 198.5
   vertex 42.0175 37.9825 199.073
  endloop
 endfacet
 facet normal 0.645975 -0.645975 -0.406734
  outer loop
   vertex 42.0175 37.9825 199.073
   vertex 31.8371 28.1629 198.5
   vertex 41.8371 38.1629 198.5
  endloop
 endfacet
 facet normal 0.691655 -0.691655 -0.207912
  outer loop
   vertex 32.1097 27.8903 199.686
   vertex 32.0175 27.9825 199.073
   vertex 42.1097 37.8903 199.686
  endloop
 endfacet
 facet normal 0.691654 -0.691654 -0.207914
  outer loop
   vertex 42.1097 37.8903 199.686
   vertex 32.0175 27.9825 199.073
   vertex 42.0175 37.9825 199.073
  endloop
 endfacet
 facet normal 0.707107 -0.707107 0
  outer loop
   vertex 32.1097 27.8903 200.314
   vertex 32.1097 27.8903 199.686
   vertex 42.1097 37.8903 200.314
  endloop
 endfacet
 facet normal 0.707107 -0.707107 0
  outer loop
   vertex 42.1097 37.8903 200.314
   vertex 32.1097 27.8903 199.686
   vertex 42.1097 37.8903 199.686
  endloop
 endfacet
 facet normal 0.691655 -0.691655 0.207912
  outer loop
   vertex 32.0175 27.9825 200.927
   vertex 32.1097 27.8903 200.314
   vertex 42.0175 37.9825 200.927
  endloop
 endfacet
 facet normal 0.691654 -0.691654 0.207914
  outer loop
   vertex 42.0175 37.9825 200.927
   vertex 32.1097 27.8903 200.314
   vertex 42.1097 37.8903 200.314
  endloop
 endfacet
 facet normal 0.645976 -0.645975 0.406732
  outer loop
   vertex 31.8371 28.1629 201.5
   vertex 32.0175 27.9825 200.927
   vertex 41.8371 38.1629 201.5
  endloop
 endfacet
 facet normal 0.645975 -0.645975 0.406734
  outer loop
   vertex 41.8371 38.1629 201.5
   vertex 32.0175 27.9825 200.927
   vertex 42.0175 37.9825 200.927
  endloop
 endfacet
 facet normal 0.572058 -0.572058 0.587791
  outer loop
   vertex 31.5764 28.4236 202.007
   vertex 31.8371 28.1629 201.5
   vertex 41.5764 38.4236 202.007
  endloop
 endfacet
 facet normal 0.572058 -0.572058 0.587791
  outer loop
   vertex 41.5764 38.4236 202.007
   vertex 31.8371 28.1629 201.5
   vertex 41.8371 38.1629 201.5
  endloop
 endfacet
 facet normal 0.473149 -0.473149 0.743142
  outer loop
   vertex 31.2469 28.7531 202.427
   vertex 31.5764 28.4236 202.007
   vertex 41.2469 38.7531 202.427
  endloop
 endfacet
 facet normal 0.473149 -0.473149 0.743142
  outer loop
   vertex 41.2469 38.7531 202.427
   vertex 31.5764 28.4236 202.007
   vertex 41.5764 38.4236 202.007
  endloop
 endfacet
 facet normal 0.35355 -0.353551 0.866028
  outer loop
   vertex 30.8628 29.1372 202.741
   vertex 31.2469 28.7531 202.427
   vertex 40.8628 39.1372 202.741
  endloop
 endfacet
 facet normal 0.353553 -0.353553 0.866026
  outer loop
   vertex 40.8628 39.1372 202.741
   vertex 31.2469 28.7531 202.427
   vertex 41.2469 38.7531 202.427
  endloop
 endfacet
 facet normal 0.21852 -0.21852 0.951051
  outer loop
   vertex 30.441 29.559 202.934
   vertex 30.8628 29.1372 202.741
   vertex 40.441 39.559 202.934
  endloop
 endfacet
 facet normal 0.218519 -0.218519 0.951052
  outer loop
   vertex 40.441 39.559 202.934
   vertex 30.8628 29.1372 202.741
   vertex 40.8628 39.1372 202.741
  endloop
 endfacet
 facet normal 0.0739067 -0.0739067 0.994523
  outer loop
   vertex 30 30 203
   vertex 30.441 29.559 202.934
   vertex 40 40 203
  endloop
 endfacet
 facet normal 0.0739067 -0.0739067 0.994523
  outer loop
   vertex 40 40 203
   vertex 30.441 29.559 202.934
   vertex 40.441 39.559 202.934
  endloop
 endfacet
 facet normal 0.0739067 0.0739067 -0.994523
  outer loop
   vertex -29.559 30.441 197.066
   vertex -30 30 197
   vertex -39.559 40.441 197.066
  endloop
 endfacet
 facet normal 0.0739067 0.0739067 -0.994523
  outer loop
   vertex -39.559 40.441 197.066
   vertex -30 30 197
   vertex -40 40 197
  endloop
 endfacet
 facet normal 0.21852 0.21852 -0.951051
  outer loop
   vertex -29.1372 30.8628 197.259
   vertex -29.559 30.441 197.066
   vertex -39.1372 40.8628 197.259
  endloop
 endfacet
 facet normal 0.218519 0.218519 -0.951052
  outer loop
   vertex -39.1372 40.8628 197.259
   vertex -29.559 30.441 197.066
   vertex -39.559 40.441 197.066
  endloop
 endfacet
 facet normal 0.35355 0.353551 -0.866028
  outer loop
   vertex -28.7531 31.2469 197.573
   vertex -29.1372 30.8628 197.259
   vertex -38.7531 41.2469 197.573
  endloop
 endfacet
 facet normal 0.353553 0.353553 -0.866026
  outer loop
   vertex -38.7531 41.2469 197.573
   vertex -29.1372 30.8628 197.259
   vertex -39.1372 40.8628 197.259
  endloop
 endfacet
 facet normal 0.473149 0.473149 -0.743142
  outer loop
   vertex -28.4236 31.5764 197.993
   vertex -28.7531 31.2469 197.573
   vertex -38.4236 41.5764 197.993
  endloop
 endfacet
 facet normal 0.473149 0.473149 -0.743142
  outer loop
   vertex -38.4236 41.5764 197.993
   vertex -28.7531 31.2469 197.573
   vertex -38.7531 41.2469 197.573
  endloop
 endfacet
 facet normal 0.572058 0.572058 -0.587791
  outer loop
   vertex -28.1629 31.8371 198.5
   vertex -28.4236 31.5764 197.993
   vertex -38.1629 41.8371 198.5
  endloop
 endfacet
 facet normal 0.572058 0.572058 -0.587791
  outer loop
   vertex -38.1629 41.8371 198.5
   vertex -28.4236 31.5764 197.993
   vertex -38.4236 41.5764 197.993
  endloop
 endfacet
 facet normal 0.645975 0.645976 -0.406732
  outer loop
   vertex -27.9825 32.0175 199.073
   vertex -28.1629 31.8371 198.5
   vertex -37.9825 42.0175 199.073
  endloop
 endfacet
 facet normal 0.645975 0.645975 -0.406734
  outer loop
   vertex -37.9825 42.0175 199.073
   vertex -28.1629 31.8371 198.5
   vertex -38.1629 41.8371 198.5
  endloop
 endfacet
 facet normal 0.691655 0.691655 -0.207912
  outer loop
   vertex -27.8903 32.1097 199.686
   vertex -27.9825 32.0175 199.073
   vertex -37.8903 42.1097 199.686
  endloop
 endfacet
 facet normal 0.691654 0.691654 -0.207914
  outer loop
   vertex -37.8903 42.1097 199.686
   vertex -27.9825 32.0175 199.073
   vertex -37.9825 42.0175 199.073
  endloop
 endfacet
 facet normal 0.707107 0.707107 -0
  outer loop
   vertex -27.8903 32.1097 200.314
   vertex -27.8903 32.1097 199.686
   vertex -37.8903 42.1097 200.314
  endloop
 endfacet
 facet normal 0.707107 0.707107 0
  outer loop
   vertex -37.8903 42.1097 200.314
   vertex -27.8903 32.1097 199.686
   vertex -37.8903 42.1097 199.686
  endloop
 endfacet
 facet normal 0.691655 0.691655 0.207912
  outer loop
   vertex -27.9825 32.0175 200.927
   vertex -27.8903 32.1097 200.314
   vertex -37.9825 42.0175 200.927
  endloop
 endfacet
 facet normal 0.691654 0.691654 0.207914
  outer loop
   vertex -37.9825 42.0175 200.927
   vertex -27.8903 32.1097 200.314
   vertex -37.8903 42.1097 200.314
  endloop
 endfacet
 facet normal 0.645975 0.645976 0.406732
  outer loop
   vertex -28.1629 31.8371 201.5
   vertex -27.9825 32.0175 200.927
   vertex -38.1629 41.8371 201.5
  endloop
 endfacet
 facet normal 0.645975 0.645975 0.406734
  outer loop
   vertex -38.1629 41.8371 201.5
   vertex -27.9825 32.0175 200.927
   vertex -37.9825 42.0175 200.927
  endloop
 endfacet
 facet normal 0.572058 0.572058 0.587791
  outer loop
   vertex -28.4236 31.5764 202.007
   vertex -28.1629 31.8371 201.5
   vertex -38.4236 41.5764 202.007
  endloop
 endfacet
 facet normal 0.572058 0.572058 0.587791
  outer loop
   vertex -38.4236 41.5764 202.007
   vertex -28.1629 31.8371 201.5
   vertex -38.1629 41.8371 201.5
  endloop
 endfacet
 facet normal 0.473149 0.473149 0.743142
  outer loop
   vertex -28.7531 31.2469 202.427
   vertex -28.4236 31.5764 202.007
   vertex -38.7531 41.2469 202.427
  endloop
 endfacet
 facet normal 0.473149 0.473149 0.743142
  outer loop
   vertex -38.7531 41.2469 202.427
   vertex -28.4236 31.5764 202.007
   vertex -38.4236 41.5764 202.007
  endloop
 endfacet
 facet normal 0.353551 0.35355 0.866028
  outer loop
   vertex -29.1372 30.8628 202.741
   vertex -28.7531 31.2469 202.427
   vertex -39.1372 40.8628 202.741
  endloop
 endfacet
 facet normal 0.353553 0.353553 0.866026
  outer loop
   vertex -39.1372 40.8628 202.741
   vertex -28.7531 31.2469 202.427
   vertex -38.7531 41.2469 202.427
  endloop
 endfacet
 facet normal 0.21852 0.21852 0.951051
  outer loop
   vertex -29.559 30.441 202.934
   vertex -29.1372 30.8628 202.741
   vertex -39.559 40.441 202.934
  endloop
 endfacet
 facet normal 0.218519 0.218519 0.951052
  outer loop
   vertex -39.559 40.441 202.934
   vertex -29.1372 30.8628 202.741
   vertex -39.1372 40.8628 202.741
  endloop
 endfacet
 facet normal 0.0739067 0.0739067 0.994523
  outer loop
   vertex -30 30 203
   vertex -29.559 30.441 202.934
   vertex -40 40 203
  endloop
 endfacet
 facet normal 0.0739067 0.0739067 0.994523
  outer loop
   vertex -40 40 203
   vertex -29.559 30.441 202.934
   vertex -39.559 40.441 202.934
  endloop
 endfacet
 facet normal -0.0739067 -0.0739067 0.994523
  outer loop
   vertex -30.441 29.559 202.934
   vertex -30 30 203
   vertex -40.441 39.559 202.934
  endloop
 endfacet
 facet normal -0.0739067 -0.0739067 0.994523
  outer loop
   vertex -40.441 39.559 202.934
   vertex -30 30 203
   vertex -40 40 203
  endloop
 endfacet
 facet normal -0.21852 -0.21852 0.951051
  outer loop
   vertex -30.8628 29.1372 202.741
   vertex -30.441 29.559 202.934
   vertex -40.8628 39.1372 202.741
  endloop
 endfacet
 facet normal -0.218519 -0.218519 0.951052
  outer loop
   vertex -40.8628 39.1372 202.741
   vertex -30.441 29.559 202.934
   vertex -40.441 39.559 202.934
  endloop
 endfacet
 facet normal -0.353551 -0.35355 0.866028
  outer loop
   vertex -31.2469 28.7531 202.427
   vertex -30.8628 29.1372 202.741
   vertex -41.2469 38.7531 202.427
  endloop
 endfacet
 facet normal -0.353553 -0.353553 0.866026
  outer loop
   vertex -41.2469 38.7531 202.427
   vertex -30.8628 29.1372 202.741
   vertex -40.8628 39.1372 202.741
  endloop
 endfacet
 facet normal -0.473149 -0.473149 0.743142
  outer loop
   vertex -31.5764 28.4236 202.007
   vertex -31.2469 28.7531 202.427
   vertex -41.5764 38.4236 202.007
  endloop
 endfacet
 facet normal -0.473149 -0.473149 0.743142
  outer loop
   vertex -41.5764 38.4236 202.007
   vertex -31.2469 28.7531 202.427
   vertex -41.2469 38.7531 202.427
  endloop
 endfacet
 facet normal -0.572058 -0.572058 0.587791
  outer loop
   vertex -31.8371 28.1629 201.5
   vertex -31.5764 28.4236 202.007
   vertex -41.8371 38.1629 201.5
  endloop
 endfacet
 facet normal -0.572058 -0.572058 0.587791
  outer loop
   vertex -41.8371 38.1629 201.5
   vertex -31.5764 28.4236 202.007
   vertex -41.5764 38.4236 202.007
  endloop
 endfacet
 facet normal -0.645976 -0.645975 0.406732
  outer loop
   vertex -32.0175 27.9825 200.927
   vertex -31.8371 28.1629 201.5
   vertex -42.0175 37.9825 200.927
  endloop
 endfacet
 facet normal -0.645975 -0.645975 0.406734
  outer loop
   vertex -42.0175 37.9825 200.927
   vertex -31.8371 28.1629 201.5
   vertex -41.8371 38.1629 201.5
  endloop
 endfacet
 facet normal -0.691655 -0.691655 0.207912
  outer loop
   vertex -32.1097 27.8903 200.314
   vertex -32.0175 27.9825 200.927
   vertex -42.1097 37.8903 200.314
  endloop
 endfacet
 facet normal -0.691654 -0.691654 0.207914
  outer loop
   vertex -42.1097 37.8903 200.314
   vertex -32.0175 27.9825 200.927
   vertex -42.0175 37.9825 200.927
  endloop
 endfacet
 facet normal -0.707107 -0.707107 -0
  outer loop
   vertex -32.1097 27.8903 199.686
   vertex -32.1097 27.8903 200.314
   vertex -42.1097 37.8903 199.686
  endloop
 endfacet
 facet normal -0.707107 -0.707107 0
  outer loop
   vertex -42.1097 37.8903 199.686
   vertex -32.1097 27.8903 200.314
   vertex -42.1097 37.8903 200.314
  endloop
 endfacet
 facet normal -0.691655 -0.691655 -0.207912
  outer loop
   vertex -32.0175 27.9825 199.073
   vertex -32.1097 27.8903 199.686
   vertex -42.0175 37.9825 199.073
  endloop
 endfacet
 facet normal -0.691654 -0.691654 -0.207914
  outer loop
   vertex -42.0175 37.9825 199.073
   vertex -32.1097 27.8903 199.686
   vertex -42.1097 37.8903 199.686
  endloop
 endfacet
 facet normal -0.645976 -0.645975 -0.406732
  outer loop
   vertex -31.8371 28.1629 198.5
   vertex -32.0175 27.9825 199.073
   vertex -41.8371 38.1629 198.5
  endloop
 endfacet
 facet normal -0.645975 -0.645975 -0.406734
  outer loop
   vertex -41.8371 38.1629 198.5
   vertex -32.0175 27.9825 199.073
   vertex -42.0175 37.9825 199.073
  endloop
 endfacet
 facet normal -0.572058 -0.572058 -0.587791
  outer loop
   vertex -31.5764 28.4236 197.993
   vertex -31.8371 28.1629 198.5
   vertex -41.5764 38.4236 197.993
  endloop
 endfacet
 facet normal -0.572058 -0.572058 -0.587791
  outer loop
   vertex -41.5764 38.4236 197.993
   vertex -31.8371 28.1629 198.5
   vertex -41.8371 38.1629 198.5
  endloop
 endfacet
 facet normal -0.473149 -0.473149 -0.743142
  outer loop
   vertex -31.2469 28.7531 197.573
   vertex -31.5764 28.4236 197.993
   vertex -41.2469 38.7531 197.573
  endloop
 endfacet
 facet normal -0.473149 -0.473149 -0.743142
  outer loop
   vertex -41.2469 38.7531 197.573
   vertex -31.5764 28.4236 197.993
   vertex -41.5764 38.4236 197.993
  endloop
 endfacet
 facet normal -0.35355 -0.353551 -0.866028
  outer loop
   vertex -30.8628 29.1372 197.259
   vertex -31.2469 28.7531 197.573
   vertex -40.8628 39.1372 197.259
  endloop
 endfacet
 facet normal -0.353553 -0.353553 -0.866026
  outer loop
   vertex -40.8628 39.1372 197.259
   vertex -31.2469 28.7531 197.573
   vertex -41.2469 38.7531 197.573
  endloop
 endfacet
 facet normal -0.21852 -0.21852 -0.951051
  outer loop
   vertex -30.441 29.559 197.066
   vertex -30.8628 29.1372 197.259
   vertex -40.441 39.559 197.066
  endloop
 endfacet
 facet normal -0.218519 -0.218519 -0.951052
  outer loop
   vertex -40.441 39.559 197.066
   vertex -30.8628 29.1372 197.259
   vertex -40.8628 39.1372 197.259
  endloop
 endfacet
 facet normal -0.0739067 -0.0739067 -0.994523
  outer loop
   vertex -30 30 197
   vertex -30.441 29.559 197.066
   vertex -40 40 197
  endloop
 endfacet
 facet normal -0.0739067 -0.0739067 -0.994523
  outer loop
   vertex -40 40 197
   vertex -30.441 29.559 197.066
   vertex -40.441 39.559 197.066
  endloop
 endfacet
 facet normal 0.0739067 0.0739067 0.994523
  outer loop
   vertex 30.441 -29.559 202.934
   vertex 30 -30 203
   vertex 40.441 -39.559 202.934
  endloop
 endfacet
 facet normal 0.0739067 0.0739067 0.994523
  outer loop
   vertex 40.441 -39.559 202.934
   vertex 30 -30 203
   vertex 40 -40 203
  endloop
 endfacet
 facet normal 0.21852 0.21852 0.951051
  outer loop
   vertex 30.8628 -29.1372 202.741
   vertex 30.441 -29.559 202.934
   vertex 40.8628 -39.1372 202.741
  endloop
 endfacet
 facet normal 0.218519 0.218519 0.951052
  outer loop
   vertex 40.8628 -39.1372 202.741
   vertex 30.441 -29.559 202.934
   vertex 40.441 -39.559 202.934
  endloop
 endfacet
 facet normal 0.353551 0.35355 0.866028
  outer loop
   vertex 31.2469 -28.7531 202.427
   vertex 30.8628 -29.1372 202.741
   vertex 41.2469 -38.7531 202.427
  endloop
 endfacet
 facet normal 0.353553 0.353553 0.866026
  outer loop
   vertex 41.2469 -38.7531 202.427
   vertex 30.8628 -29.1372 202.741
   vertex 40.8628 -39.1372 202.741
  endloop
 endfacet
 facet normal 0.473149 0.473149 0.743142
  outer loop
   vertex 31.5764 -28.4236 202.007
   vertex 31.2469 -28.7531 202.427
   vertex 41.5764 -38.4236 202.007
  endloop
 endfacet
 facet normal 0.473149 0.473149 0.743142
  outer loop
   vertex 41.5764 -38.4236 202.007
   vertex 31.2469 -28.7531 202.427
   vertex 41.2469 -38.7531 202.427
  endloop
 endfacet
 facet normal 0.572058 0.572058 0.587791
  outer loop
   vertex 31.8371 -28.1629 201.5
   vertex 31.5764 -28.4236 202.007
   vertex 41.8371 -38.1629 201.5
  endloop
 endfacet
 facet normal 0.572058 0.572058 0.587791
  outer loop
   vertex 41.8371 -38.1629 201.5
   vertex 31.5764 -28.4236 202.007
   vertex 41.5764 -38.4236 202.007
  endloop
 endfacet
 facet normal 0.645976 0.645975 0.406732
  outer loop
   vertex 32.0175 -27.9825 200.927
   vertex 31.8371 -28.1629 201.5
   vertex 42.0175 -37.9825 200.927
  endloop
 endfacet
 facet normal 0.645975 0.645975 0.406734
  outer loop
   vertex 42.0175 -37.9825 200.927
   vertex 31.8371 -28.1629 201.5
   vertex 41.8371 -38.1629 201.5
  endloop
 endfacet
 facet normal 0.691655 0.691655 0.207912
  outer loop
   vertex 32.1097 -27.8903 200.314
   vertex 32.0175 -27.9825 200.927
   vertex 42.1097 -37.8903 200.314
  endloop
 endfacet
 facet normal 0.691654 0.691654 0.207914
  outer loop
   vertex 42.1097 -37.8903 200.314
   vertex 32.0175 -27.9825 200.927
   vertex 42.0175 -37.9825 200.927
  endloop
 endfacet
 facet normal 0.707107 0.707107 0
  outer loop
   vertex 32.1097 -27.8903 199.686
   vertex 32.1097 -27.8903 200.314
   vertex 42.1097 -37.8903 199.686
  endloop
 endfacet
 facet normal 0.707107 0.707107 0
  outer loop
   vertex 42.1097 -37.8903 199.686
   vertex 32.1097 -27.8903 200.314
   vertex 42.1097 -37.8903 200.314
  endloop
 endfacet
 facet normal 0.691655 0.691655 -0.207912
  outer loop
   vertex 32.0175 -27.9825 199.073
   vertex 32.1097 -27.8903 199.686
   vertex 42.0175 -37.9825 199.073
  endloop
 endfacet
 facet normal 0.691654 0.691654 -0.207914
  outer loop
   vertex 42.0175 -37.9825 199.073
   vertex 32.1097 -27.8903 199.686
   vertex 42.1097 -37.8903 199.686
  endloop
 endfacet
 facet normal 0.645976 0.645975 -0.406732
  outer loop
   vertex 31.8371 -28.1629 198.5
   vertex 32.0175 -27.9825 199.073
   vertex 41.8371 -38.1629 198.5
  endloop
 endfacet
 facet normal 0.645975 0.645975 -0.406734
  outer loop
   vertex 41.8371 -38.1629 198.5
   vertex 32.0175 -27.9825 199.073
   vertex 42.0175 -37.9825 199.073
  endloop
 endfacet
 facet normal 0.572058 0.572058 -0.587791
  outer loop
   vertex 31.5764 -28.4236 197.993
   vertex 31.8371 -28.1629 198.5
   vertex 41.5764 -38.4236 197.993
  endloop
 endfacet
 facet normal 0.572058 0.572058 -0.587791
  outer loop
   vertex 41.5764 -38.4236 197.993
   vertex 31.8371 -28.1629 198.5
   vertex 41.8371 -38.1629 198.5
  endloop
 endfacet
 facet normal 0.473149 0.473149 -0.743142
  outer loop
   vertex 31.2469 -28.7531 197.573
   vertex 31.5764 -28.4236 197.993
   vertex 41.2469 -38.7531 197.573
  endloop
 endfacet
 facet normal 0.473149 0.473149 -0.743142
  outer loop
   vertex 41.2469 -38.7531 197.573
   vertex 31.5764 -28.4236 197.993
   vertex 41.5764 -38.4236 197.993
  endloop
 endfacet
 facet normal 0.35355 0.353551 -0.866028
  outer loop
   vertex 30.8628 -29.1372 197.259
   vertex 31.2469 -28.7531 197.573
   vertex 40.8628 -39.1372 197.259
  endloop
 endfacet
 facet normal 0.353553 0.353553 -0.866026
  outer loop
   vertex 40.8628 -39.1372 197.259
   vertex 31.2469 -28.7531 197.573
   vertex 41.2469 -38.7531 197.573
  endloop
 endfacet
 facet normal 0.21852 0.21852 -0.951051
  outer loop
   vertex 30.441 -29.559 197.066
   vertex 30.8628 -29.1372 197.259
   vertex 40.441 -39.559 197.066
  endloop
 endfacet
 facet normal 0.218519 0.218519 -0.951052
  outer loop
   vertex 40.441 -39.559 197.066
   vertex 30.8628 -29.1372 197.259
   vertex 40.8628 -39.1372 197.259
  endloop
 endfacet
 facet normal 0.0739067 0.0739067 -0.994523
  outer loop
   vertex 30 -30 197
   vertex 30.441 -29.559 197.066
   vertex 40 -40 197
  endloop
 endfacet
 facet normal 0.0739067 0.0739067 -0.994523
  outer loop
   vertex 40 -40 197
   vertex 30.441 -29.559 197.066
   vertex 40.441 -39.559 197.066
  endloop
 endfacet
 facet normal -0.0739067 -0.0739067 -0.994523
  outer loop
   vertex 29.559 -30.441 197.066
   vertex 30 -30 197
   vertex 39.559 -40.441 197.066
  endloop
 endfacet
 facet normal -0.0739067 -0.0739067 -0.994523
  outer loop
   vertex 39.559 -40.441 197.066
   vertex 30 -30 197
   vertex 40 -40 197
  endloop
 endfacet
 facet normal -0.21852 -0.21852 -0.951051
  outer loop
   vertex 29.1372 -30.8628 197.259
   vertex 29.559 -30.441 197.066
   vertex 39.1372 -40.8628 197.259
  endloop
 endfacet
 facet normal -0.218519 -0.218519 -0.951052
  outer loop
   vertex 39.1372 -40.8628 197.259
   vertex 29.559 -30.441 197.066
   vertex 39.559 -40.441 197.066
  endloop
 endfacet
 facet normal -0.35355 -0.353551 -0.866028
  outer loop
   vertex 28.7531 -31.2469 197.573
   vertex 29.1372 -30.8628 197.259
   vertex 38.7531 -41.2469 197.573
  endloop
 endfacet
 facet normal -0.353553 -0.353553 -0.866026
  outer loop
   vertex 38.7531 -41.2469 197.573
   vertex 29.1372 -30.8628 197.259
   vertex 39.1372 -40.8628 197.259
  endloop
 endfacet
 facet normal -0.473149 -0.473149 -0.743142
  outer loop
   vertex 28.4236 -31.5764 197.993
   vertex 28.7531 -31.2469 197.573
   vertex 38.4236 -41.5764 197.993
  endloop
 endfacet
 facet normal -0.473149 -0.473149 -0.743142
  outer loop
   vertex 38.4236 -41.5764 197.993
   vertex 28.7531 -31.2469 197.573
   vertex 38.7531 -41.2469 197.573
  endloop
 endfacet
 facet normal -0.572058 -0.572058 -0.587791
  outer loop
   vertex 28.1629 -31.8371 198.5
   vertex 28.4236 -31.5764 197.993
   vertex 38.1629 -41.8371 198.5
  endloop
 endfacet
 facet normal -0.572058 -0.572058 -0.587791
  outer loop
   vertex 38.1629 -41.8371 198.5
   vertex 28.4236 -31.5764 197.993
   vertex 38.4236 -41.5764 197.993
  endloop
 endfacet
 facet normal -0.645975 -0.645976 -0.406732
  outer loop
   vertex 27.9825 -32.0175 199.073
   vertex 28.1629 -31.8371 198.5
   vertex 37.9825 -42.0175 199.073
  endloop
 endfacet
 facet normal -0.645975 -0.645975 -0.406734
  outer loop
   vertex 37.9825 -42.0175 199.073
   vertex 28.1629 -31.8371 198.5
   vertex 38.1629 -41.8371 198.5
  endloop
 endfacet
 facet normal -0.691655 -0.691655 -0.207912
  outer loop
   vertex 27.8903 -32.1097 199.686
   vertex 27.9825 -32.0175 199.073
   vertex 37.8903 -42.1097 199.686
  endloop
 endfacet
 facet normal -0.691654 -0.691654 -0.207914
  outer loop
   vertex 37.8903 -42.1097 199.686
   vertex 27.9825 -32.0175 199.073
   vertex 37.9825 -42.0175 199.073
  endloop
 endfacet
 facet normal -0.707107 -0.707107 0
  outer loop
   vertex 27.8903 -32.1097 200.314
   vertex 27.8903 -32.1097 199.686
   vertex 37.8903 -42.1097 200.314
  endloop
 endfacet
 facet normal -0.707107 -0.707107 0
  outer loop
   vertex 37.8903 -42.1097 200.314
   vertex 27.8903 -32.1097 199.686
   vertex 37.8903 -42.1097 199.686
  endloop
 endfacet
 facet normal -0.691655 -0.691655 0.207912
  outer loop
   vertex 27.9825 -32.0175 200.927
   vertex 27.8903 -32.1097 200.314
   vertex 37.9825 -42.0175 200.927
  endloop
 endfacet
 facet normal -0.691654 -0.691654 0.207914
  outer loop
   vertex 37.9825 -42.0175 200.927
   vertex 27.8903 -32.1097 200.314
   vertex 37.8903 -42.1097 200.314
  endloop
 endfacet
 facet normal -0.645975 -0.645976 0.406732
  outer loop
   vertex 28.1629 -31.8371 201.5
   vertex 27.9825 -32.0175 200.927
   vertex 38.1629 -41.8371 201.5
  endloop
 endfacet
 facet normal -0.645975 -0.645975 0.406734
  outer loop
   vertex 38.1629 -41.8371 201.5
   vertex 27.9825 -32.0175 200.927
   vertex 37.9825 -42.0175 200.927
  endloop
 endfacet
 facet normal -0.572058 -0.572058 0.587791
  outer loop
   vertex 28.4236 -31.5764 202.007
   vertex 28.1629 -31.8371 201.5
   vertex 38.4236 -41.5764 202.007
  endloop
 endfacet
 facet normal -0.572058 -0.572058 0.587791
  outer loop
   vertex 38.4236 -41.5764 202.007
   vertex 28.1629 -31.8371 201.5
   vertex 38.1629 -41.8371 201.5
  endloop
 endfacet
 facet normal -0.473149 -0.473149 0.743142
  outer loop
   vertex 28.7531 -31.2469 202.427
   vertex 28.4236 -31.5764 202.007
   vertex 38.7531 -41.2469 202.427
  endloop
 endfacet
 facet normal -0.473149 -0.473149 0.743142
  outer loop
   vertex 38.7531 -41.2469 202.427
   vertex 28.4236 -31.5764 202.007
   vertex 38.4236 -41.5764 202.007
  endloop
 endfacet
 facet normal -0.353551 -0.35355 0.866028
  outer loop
   vertex 29.1372 -30.8628 202.741
   vertex 28.7531 -31.2469 202.427
   vertex 39.1372 -40.8628 202.741
  endloop
 endfacet
 facet normal -0.353553 -0.353553 0.866026
  outer loop
   vertex 39.1372 -40.8628 202.741
   vertex 28.7531 -31.2469 202.427
   vertex 38.7531 -41.2469 202.427
  endloop
 endfacet
 facet normal -0.21852 -0.21852 0.951051
  outer loop
   vertex 29.559 -30.441 202.934
   vertex 29.1372 -30.8628 202.741
   vertex 39.559 -40.441 202.934
  endloop
 endfacet
 facet normal -0.218519 -0.218519 0.951052
  outer loop
   vertex 39.559 -40.441 202.934
   vertex 29.1372 -30.8628 202.741
   vertex 39.1372 -40.8628 202.741
  endloop
 endfacet
 facet normal -0.0739067 -0.0739067 0.994523
  outer loop
   vertex 30 -30 203
   vertex 29.559 -30.441 202.934
   vertex 40 -40 203
  endloop
 endfacet
 facet normal -0.0739067 -0.0739067 0.994523
  outer loop
   vertex 40 -40 203
   vertex 29.559 -30.441 202.934
   vertex 39.559 -40.441 202.934
  endloop
 endfacet
 facet normal -0.0739067 0.0739067 -0.994523
  outer loop
   vertex -30.441 -29.559 197.066
   vertex -30 -30 197
   vertex -40.441 -39.559 197.066
  endloop
 endfacet
 facet normal -0.0739067 0.0739067 -0.994523
  outer loop
   vertex -40.441 -39.559 197.066
   vertex -30 -30 197
   vertex -40 -40 197
  endloop
 endfacet
 facet normal -0.21852 0.21852 -0.951051
  outer loop
   vertex -30.8628 -29.1372 197.259
   vertex -30.441 -29.559 197.066
   vertex -40.8628 -39.1372 197.259
  endloop
 endfacet
 facet normal -0.218519 0.218519 -0.951052
  outer loop
   vertex -40.8628 -39.1372 197.259
   vertex -30.441 -29.559 197.066
   vertex -40.441 -39.559 197.066
  endloop
 endfacet
 facet normal -0.353551 0.35355 -0.866028
  outer loop
   vertex -31.2469 -28.7531 197.573
   vertex -30.8628 -29.1372 197.259
   vertex -41.2469 -38.7531 197.573
  endloop
 endfacet
 facet normal -0.353553 0.353553 -0.866026
  outer loop
   vertex -41.2469 -38.7531 197.573
   vertex -30.8628 -29.1372 197.259
   vertex -40.8628 -39.1372 197.259
  endloop
 endfacet
 facet normal -0.473149 0.473149 -0.743142
  outer loop
   vertex -31.5764 -28.4236 197.993
   vertex -31.2469 -28.7531 197.573
   vertex -41.5764 -38.4236 197.993
  endloop
 endfacet
 facet normal -0.473149 0.473149 -0.743142
  outer loop
   vertex -41.5764 -38.4236 197.993
   vertex -31.2469 -28.7531 197.573
   vertex -41.2469 -38.7531 197.573
  endloop
 endfacet
 facet normal -0.572058 0.572058 -0.587791
  outer loop
   vertex -31.8371 -28.1629 198.5
   vertex -31.5764 -28.4236 197.993
   vertex -41.8371 -38.1629 198.5
  endloop
 endfacet
 facet normal -0.572058 0.572058 -0.587791
  outer loop
   vertex -41.8371 -38.1629 198.5
   vertex -31.5764 -28.4236 197.993
   vertex -41.5764 -38.4236 197.993
  endloop
 endfacet
 facet normal -0.645976 0.645975 -0.406732
  outer loop
   vertex -32.0175 -27.9825 199.073
   vertex -31.8371 -28.1629 198.5
   vertex -42.0175 -37.9825 199.073
  endloop
 endfacet
 facet normal -0.645975 0.645975 -0.406734
  outer loop
   vertex -42.0175 -37.9825 199.073
   vertex -31.8371 -28.1629 198.5
   vertex -41.8371 -38.1629 198.5
  endloop
 endfacet
 facet normal -0.691655 0.691655 -0.207912
  outer loop
   vertex -32.1097 -27.8903 199.686
   vertex -32.0175 -27.9825 199.073
   vertex -42.1097 -37.8903 199.686
  endloop
 endfacet
 facet normal -0.691654 0.691654 -0.207914
  outer loop
   vertex -42.1097 -37.8903 199.686
   vertex -32.0175 -27.9825 199.073
   vertex -42.0175 -37.9825 199.073
  endloop
 endfacet
 facet normal -0.707107 0.707107 0
  outer loop
   vertex -32.1097 -27.8903 200.314
   vertex -32.1097 -27.8903 199.686
   vertex -42.1097 -37.8903 200.314
  endloop
 endfacet
 facet normal -0.707107 0.707107 0
  outer loop
   vertex -42.1097 -37.8903 200.314
   vertex -32.1097 -27.8903 199.686
   vertex -42.1097 -37.8903 199.686
  endloop
 endfacet
 facet normal -0.691655 0.691655 0.207912
  outer loop
   vertex -32.0175 -27.9825 200.927
   vertex -32.1097 -27.8903 200.314
   vertex -42.0175 -37.9825 200.927
  endloop
 endfacet
 facet normal -0.691654 0.691654 0.207914
  outer loop
   vertex -42.0175 -37.9825 200.927
   vertex -32.1097 -27.8903 200.314
   vertex -42.1097 -37.8903 200.314
  endloop
 endfacet
 facet normal -0.645976 0.645975 0.406732
  outer loop
   vertex -31.8371 -28.1629 201.5
   vertex -32.0175 -27.9825 200.927
   vertex -41.8371 -38.1629 201.5
  endloop
 endfacet
 facet normal -0.645975 0.645975 0.406734
  outer loop
   vertex -41.8371 -38.1629 201.5
   vertex -32.0175 -27.9825 200.927
   vertex -42.0175 -37.9825 200.927
  endloop
 endfacet
 facet normal -0.572058 0.572058 0.587791
  outer loop
   vertex -31.5764 -28.4236 202.007
   vertex -31.8371 -28.1629 201.5
   vertex -41.5764 -38.4236 202.007
  endloop
 endfacet
 facet normal -0.572058 0.572058 0.587791
  outer loop
   vertex -41.5764 -38.4236 202.007
   vertex -31.8371 -28.1629 201.5
   vertex -41.8371 -38.1629 201.5
  endloop
 endfacet
 facet normal -0.473149 0.473149 0.743142
  outer loop
   vertex -31.2469 -28.7531 202.427
   vertex -31.5764 -28.4236 202.007
   vertex -41.2469 -38.7531 202.427
  endloop
 endfacet
 facet normal -0.473149 0.473149 0.743142
  outer loop
   vertex -41.2469 -38.7531 202.427
   vertex -31.5764 -28.4236 202.007
   vertex -41.5764 -38.4236 202.007
  endloop
 endfacet
 facet normal -0.35355 0.353551 0.866028
  outer loop
   vertex -30.8628 -29.1372 202.741
   vertex -31.2469 -28.7531 202.427
   vertex -40.8628 -39.1372 202.741
  endloop
 endfacet
 facet normal -0.353553 0.353553 0.866026
  outer loop
   vertex -40.8628 -39.1372 202.741
   vertex -31.2469 -28.7531 202.427
   vertex -41.2469 -38.7531 202.427
  endloop
 endfacet
 facet normal -0.21852 0.21852 0.951051
  outer loop
   vertex -30.441 -29.559 202.934
   vertex -30.8628 -29.1372 202.741
   vertex -40.441 -39.559 202.934
  endloop
 endfacet
 facet normal -0.218519 0.218519 0.951052
  outer loop
   vertex -40.441 -39.559 202.934
   vertex -30.8628 -29.1372 202.741
   vertex -40.8628 -39.1372 202.741
  endloop
 endfacet
 facet normal -0.0739067 0.0739067 0.994523
  outer loop
   vertex -30 -30 203
   vertex -30.441 -29.559 202.934
   vertex -40 -40 203
  endloop
 endfacet
 facet normal -0.0739067 0.0739067 0.994523
  outer loop
   vertex -40 -40 203
   vertex -30.441 -29.559 202.934
   vertex -40.441 -39.559 202.934
  endloop
 endfacet
 facet normal 0.0739067 -0.0739067 0.994523
  outer loop
   vertex -29.559 -30.441 202.934
   vertex -30 -30 203
   vertex -39.559 -40.441 202.934
  endloop
 endfacet
 facet normal 0.0739067 -0.0739067 0.994523
  outer loop
   vertex -39.559 -40.441 202.934
   vertex -30 -30 203
   vertex -40 -40 203
  endloop
 endfacet
 facet normal 0.21852 -0.21852 0.951051
  outer loop
   vertex -29.1372 -30.8628 202.741
   vertex -29.559 -30.441 202.934
   vertex -39.1372 -40.8628 202.741
  endloop
 endfacet
 facet normal 0.218519 -0.218519 0.951052
  outer loop
   vertex -39.1372 -40.8628 202.741
   vertex -29.559 -30.441 202.934
   vertex -39.559 -40.441 202.934
  endloop
 endfacet
 facet normal 0.35355 -0.353551 0.866028
  outer loop
   vertex -28.7531 -31.2469 202.427
   vertex -29.1372 -30.8628 202.741
   vertex -38.7531 -41.2469 202.427
  endloop
 endfacet
 facet normal 0.353553 -0.353553 0.866026
  outer loop
   vertex -38.7531 -41.2469 202.427
   vertex -29.1372 -30.8628 202.741
   vertex -39.1372 -40.8628 202.741
  endloop
 endfacet
 facet normal 0.473149 -0.473149 0.743142
  outer loop
   vertex -28.4236 -31.5764 202.007
   vertex -28.7531 -31.2469 202.427
   vertex -38.4236 -41.5764 202.007
  endloop
 endfacet
 facet normal 0.473149 -0.473149 0.743142
  outer loop
   vertex -38.4236 -41.5764 202.007
   vertex -28.7531 -31.2469 202.427
   vertex -38.7531 -41.2469 202.427
  endloop
 endfacet
 facet normal 0.572058 -0.572058 0.587791
  outer loop
   vertex -28.1629 -31.8371 201.5
   vertex -28.4236 -31.5764 202.007
   vertex -38.1629 -41.8371 201.5
  endloop
 endfacet
 facet normal 0.572058 -0.572058 0.587791
  outer loop
   vertex -38.1629 -41.8371 201.5
   vertex -28.4236 -31.5764 202.007
   vertex -38.4236 -41.5764 202.007
  endloop
 endfacet
 facet normal 0.645975 -0.645976 0.406732
  outer loop
   vertex -27.9825 -32.0175 200.927
   vertex -28.1629 -31.8371 201.5
   vertex -37.9825 -42.0175 200.927
  endloop
 endfacet
 facet normal 0.645975 -0.645975 0.406734
  outer loop
   vertex -37.9825 -42.0175 200.927
   vertex -28.1629 -31.8371 201.5
   vertex -38.1629 -41.8371 201.5
  endloop
 endfacet
 facet normal 0.691655 -0.691655 0.207912
  outer loop
   vertex -27.8903 -32.1097 200.314
   vertex -27.9825 -32.0175 200.927
   vertex -37.8903 -42.1097 200.314
  endloop
 endfacet
 facet normal 0.691654 -0.691654 0.207914
  outer loop
   vertex -37.8903 -42.1097 200.314
   vertex -27.9825 -32.0175 200.927
   vertex -37.9825 -42.0175 200.927
  endloop
 endfacet
 facet normal 0.707107 -0.707107 0
  outer loop
   vertex -27.8903 -32.1097 199.686
   vertex -27.8903 -32.1097 200.314
   vertex -37.8903 -42.1097 199.686
  endloop
 endfacet
 facet normal 0.707107 -0.707107 0
  outer loop
   vertex -37.8903 -42.1097 199.686
   vertex -27.8903 -32.1097 200.314
   vertex -37.8903 -42.1097 200.314
  endloop
 endfacet
 facet normal 0.691655 -0.691655 -0.207912
  outer loop
   vertex -27.9825 -32.0175 199.073
   vertex -27.8903 -32.1097 199.686
   vertex -37.9825 -42.0175 199.073
  endloop
 endfacet
 facet normal 0.691654 -0.691654 -0.207914
  outer loop
   vertex -37.9825 -42.0175 199.073
   vertex -27.8903 -32.1097 199.686
   vertex -37.8903 -42.1097 199.686
  endloop
 endfacet
 facet normal 0.645975 -0.645976 -0.406732
  outer loop
   vertex -28.1629 -31.8371 198.5
   vertex -27.9825 -32.0175 199.073
   vertex -38.1629 -41.8371 198.5
  endloop
 endfacet
 facet normal 0.645975 -0.645975 -0.406734
  outer loop
   vertex -38.1629 -41.8371 198.5
   vertex -27.9825 -32.0175 199.073
   vertex -37.9825 -42.0175 199.073
  endloop
 endfacet
 facet normal 0.572058 -0.572058 -0.587791
  outer loop
   vertex -28.4236 -31.5764 197.993
   vertex -28.1629 -31.8371 198.5
   vertex -38.4236 -41.5764 197.993
  endloop
 endfacet
 facet normal 0.572058 -0.572058 -0.587791
  outer loop
   vertex -38.4236 -41.5764 197.993
   vertex -28.1629 -31.8371 198.5
   vertex -38.1629 -41.8371 198.5
  endloop
 endfacet
 facet normal 0.473149 -0.473149 -0.743142
  outer loop
   vertex -28.7531 -31.2469 197.573
   vertex -28.4236 -31.5764 197.993
   vertex -38.7531 -41.2469 197.573
  endloop
 endfacet
 facet normal 0.473149 -0.473149 -0.743142
  outer loop
   vertex -38.7531 -41.2469 197.573
   vertex -28.4236 -31.5764 197.993
   vertex -38.4236 -41.5764 197.993
  endloop
 endfacet
 facet normal 0.353551 -0.35355 -0.866028
  outer loop
   vertex -29.1372 -30.8628 197.259
   vertex -28.7531 -31.2469 197.573
   vertex -39.1372 -40.8628 197.259
  endloop
 endfacet
 facet normal 0.353553 -0.353553 -0.866026
  outer loop
   vertex -39.1372 -40.8628 197.259
   vertex -28.7531 -31.2469 197.573
   vertex -38.7531 -41.2469 197.573
  endloop
 endfacet
 facet normal 0.21852 -0.21852 -0.951051
  outer loop
   vertex -29.559 -30.441 197.066
   vertex -29.1372 -30.8628 197.259
   vertex -39.559 -40.441 197.066
  endloop
 endfacet
 facet normal 0.218519 -0.218519 -0.951052
  outer loop
   vertex -39.559 -40.441 197.066
   vertex -29.1372 -30.8628 197.259
   vertex -39.1372 -40.8628 197.259
  endloop
 endfacet
 facet normal 0.0739067 -0.0739067 -0.994523
  outer loop
   vertex -30 -30 197
   vertex -29.559 -30.441 197.066
   vertex -40 -40 197
  endloop
 endfacet
 facet normal 0.0739067 -0.0739067 -0.994523
  outer loop
   vertex -40 -40 197
   vertex -29.559 -30.441 197.066
   vertex -39.559 -40.441 197.066
  endloop
 endfacet
 facet normal 0.104529 0.994522 0
  outer loop
   vertex 0.623735 2.93444 230
   vertex 0 3 230
   vertex 0.623735 2.93444 240
  endloop
 endfacet
 facet normal 0.104529 0.994522 -0
  outer loop
   vertex 0.623735 2.93444 240
   vertex 0 3 230
   vertex 0 3 240
  endloop
 endfacet
 facet normal 0.309017 0.951057 0
  outer loop
   vertex 1.22021 2.74064 230
   vertex 0.623735 2.93444 230
   vertex 1.22021 2.74064 240
  endloop
 endfacet
 facet normal 0.309017 0.951057 -0
  outer loop
   vertex 1.22021 2.74064 240
   vertex 0.623735 2.93444 230
   vertex 0.623735 2.93444 240
  endloop
 endfacet
 facet normal 0.5 0.866025 0
  outer loop
   vertex 1.76336 2.42705 230
   vertex 1.22021 2.74064 230
   vertex 1.76336 2.42705 240
  endloop
 endfacet
 facet normal 0.5 0.866025 -0
  outer loop
   vertex 1.76336 2.42705 240
   vertex 1.22021 2.74064 230
   vertex 1.22021 2.74064 240
  endloop
 endfacet
 facet normal 0.669131 0.743145 0
  outer loop
   vertex 2.22943 2.00739 230
   vertex 1.76336 2.42705 230
   vertex 2.22943 2.00739 240
  endloop
 endfacet
 facet normal 0.669131 0.743145 -0
  outer loop
   vertex 2.22943 2.00739 240
   vertex 1.76336 2.42705 230
   vertex 1.76336 2.42705 240
  endloop
 endfacet
 facet normal 0.809017 0.587785 0
  outer loop
   vertex 2.59808 1.5 230
   vertex 2.22943 2.00739 230
   vertex 2.59808 1.5 240
  endloop
 endfacet
 facet normal 0.809017 0.587785 -0
  outer loop
   vertex 2.59808 1.5 240
   vertex 2.22943 2.00739 230
   vertex 2.22943 2.00739 240
  endloop
 endfacet
 facet normal 0.913545 0.406737 0
  outer loop
   vertex 2.85317 0.927051 230
   vertex 2.59808 1.5 230
   vertex 2.85317 0.927051 240
  endloop
 endfacet
 facet normal 0.913545 0.406737 -0
  outer loop
   vertex 2.85317 0.927051 240
   vertex 2.59808 1.5 230
   vertex 2.59808 1.5 240
  endloop
 endfacet
 facet normal 0.978148 0.207912 0
  outer loop
   vertex 2.98357 0.313585 230
   vertex 2.85317 0.927051 230
   vertex 2.98357 0.313585 240
  endloop
 endfacet
 facet normal 0.978148 0.207912 -0
  outer loop
   vertex 2.98357 0.313585 240
   vertex 2.85317 0.927051 230
   vertex 2.85317 0.927051 240
  endloop
 endfacet
 facet normal 1 0 0
  outer loop
   vertex 2.98357 -0.313585 230
   vertex 2.98357 0.313585 230
   vertex 2.98357 -0.313585 240
  endloop
 endfacet
 facet normal 1 0 -0
  outer loop
   vertex 2.98357 -0.313585 240
   vertex 2.98357 0.313585 230
   vertex 2.98357 0.313585 240
  endloop
 endfacet
 facet normal 0.978148 -0.207912 0
  outer loop
   vertex 2.85317 -0.927051 230
   vertex 2.98357 -0.313585 230
   vertex 2.85317 -0.927051 240
  endloop
 endfacet
 facet normal 0.978148 -0.207912 0
  outer loop
   vertex 2.85317 -0.927051 240
   vertex 2.98357 -0.313585 230
   vertex 2.98357 -0.313585 240
  endloop
 endfacet
 facet normal 0.913545 -0.406737 0
  outer loop
   vertex 2.59808 -1.5 230
   vertex 2.85317 -0.927051 230
   vertex 2.59808 -1.5 240
  endloop
 endfacet
 facet normal 0.913545 -0.406737 0
  outer loop
   vertex 2.59808 -1.5 240
   vertex 2.85317 -0.927051 230
   vertex 2.85317 -0.927051 240
  endloop
 endfacet
 facet normal 0.809017 -0.587785 0
  outer loop
   vertex 2.22943 -2.00739 230
   vertex 2.59808 -1.5 230
   vertex 2.22943 -2.00739 240
  endloop
 endfacet
 facet normal 0.809017 -0.587785 0
  outer loop
   vertex 2.22943 -2.00739 240
   vertex 2.59808 -1.5 230
   vertex 2.59808 -1.5 240
  endloop
 endfacet
 facet normal 0.669131 -0.743145 0
  outer loop
   vertex 1.76336 -2.42705 230
   vertex 2.22943 -2.00739 230
   vertex 1.76336 -2.42705 240
  endloop
 endfacet
 facet normal 0.669131 -0.743145 0
  outer loop
   vertex 1.76336 -2.42705 240
   vertex 2.22943 -2.00739 230
   vertex 2.22943 -2.00739 240
  endloop
 endfacet
 facet normal 0.5 -0.866025 0
  outer loop
   vertex 1.22021 -2.74064 230
   vertex 1.76336 -2.42705 230
   vertex 1.22021 -2.74064 240
  endloop
 endfacet
 facet normal 0.5 -0.866025 0
  outer loop
   vertex 1.22021 -2.74064 240
   vertex 1.76336 -2.42705 230
   vertex 1.76336 -2.42705 240
  endloop
 endfacet
 facet normal 0.309017 -0.951057 0
  outer loop
   vertex 0.623735 -2.93444 230
   vertex 1.22021 -2.74064 230
   vertex 0.623735 -2.93444 240
  endloop
 endfacet
 facet normal 0.309017 -0.951057 0
  outer loop
   vertex 0.623735 -2.93444 240
   vertex 1.22021 -2.74064 230
   vertex 1.22021 -2.74064 240
  endloop
 endfacet
 facet normal 0.104529 -0.994522 0
  outer loop
   vertex 3.67394e-16 -3 230
   vertex 0.623735 -2.93444 230
   vertex 3.67394e-16 -3 240
  endloop
 endfacet
 facet normal 0.104529 -0.994522 0
  outer loop
   vertex 3.67394e-16 -3 240
   vertex 0.623735 -2.93444 230
   vertex 0.623735 -2.93444 240
  endloop
 endfacet
 facet normal -0.104529 -0.994522 0
  outer loop
   vertex -0.623735 -2.93444 230
   vertex 3.67394e-16 -3 230
   vertex -0.623735 -2.93444 240
  endloop
 endfacet
 facet normal -0.104529 -0.994522 0
  outer loop
   vertex -0.623735 -2.93444 240
   vertex 3.67394e-16 -3 230
   vertex 3.67394e-16 -3 240
  endloop
 endfacet
 facet normal -0.309017 -0.951057 0
  outer loop
   vertex -1.22021 -2.74064 230
   vertex -0.623735 -2.93444 230
   vertex -1.22021 -2.74064 240
  endloop
 endfacet
 facet normal -0.309017 -0.951057 0
  outer loop
   vertex -1.22021 -2.74064 240
   vertex -0.623735 -2.93444 230
   vertex -0.623735 -2.93444 240
  endloop
 endfacet
 facet normal -0.5 -0.866025 0
  outer loop
   vertex -1.76336 -2.42705 230
   vertex -1.22021 -2.74064 230
   vertex -1.76336 -2.42705 240
  endloop
 endfacet
 facet normal -0.5 -0.866025 0
  outer loop
   vertex -1.76336 -2.42705 240
   vertex -1.22021 -2.74064 230
   vertex -1.22021 -2.74064 240
  endloop
 endfacet
 facet normal -0.669131 -0.743145 0
  outer loop
   vertex -2.22943 -2.00739 230
   vertex -1.76336 -2.42705 230
   vertex -2.22943 -2.00739 240
  endloop
 endfacet
 facet normal -0.669131 -0.743145 0
  outer loop
   vertex -2.22943 -2.00739 240
   vertex -1.76336 -2.42705 230
   vertex -1.76336 -2.42705 240
  endloop
 endfacet
 facet normal -0.809017 -0.587785 0
  outer loop
   vertex -2.59808 -1.5 230
   vertex -2.22943 -2.00739 230
   vertex -2.59808 -1.5 240
  endloop
 endfacet
 facet normal -0.809017 -0.587785 0
  outer loop
   vertex -2.59808 -1.5 240
   vertex -2.22943 -2.00739 230
   vertex -2.22943 -2.00739 240
  endloop
 endfacet
 facet normal -0.913545 -0.406737 0
  outer loop
   vertex -2.85317 -0.927051 230
   vertex -2.59808 -1.5 230
   vertex -2.85317 -0.927051 240
  endloop
 endfacet
 facet normal -0.913545 -0.406737 0
  outer loop
   vertex -2.85317 -0.927051 240
   vertex -2.59808 -1.5 230
   vertex -2.59808 -1.5 240
  endloop
 endfacet
 facet normal -0.978148 -0.207912 0
  outer loop
   vertex -2.98357 -0.313585 230
   vertex -2.85317 -0.927051 230
   vertex -2.98357 -0.313585 240
  endloop
 endfacet
 facet normal -0.978148 -0.207912 0
  outer loop
   vertex -2.98357 -0.313585 240
   vertex -2.85317 -0.927051 230
   vertex -2.85317 -0.927051 240
  endloop
 endfacet
 facet normal -1 0 0
  outer loop
   vertex -2.98357 0.313585 230
   vertex -2.98357 -0.313585 230
   vertex -2.98357 0.313585 240
  endloop
 endfacet
 facet normal -1 0 0
  outer loop
   vertex -2.98357 0.313585 240
   vertex -2.98357 -0.313585 230
   vertex -2.98357 -0.313585 240
  endloop
 endfacet
 facet normal -0.978148 0.207912 0
  outer loop
   vertex -2.85317 0.927051 230
   vertex -2.98357 0.313585 230
   vertex -2.85317 0.927051 240
  endloop
 endfacet
 facet normal -0.978148 0.207912 0
  outer loop
   vertex -2.85317 0.927051 240
   vertex -2.98357 0.313585 230
   vertex -2.98357 0.313585 240
  endloop
 endfacet
 facet normal -0.913545 0.406737 0
  outer loop
   vertex -2.59808 1.5 230
   vertex -2.85317 0.927051 230
   vertex -2.59808 1.5 240
  endloop
 endfacet
 facet normal -0.913545 0.406737 0
  outer loop
   vertex -2.59808 1.5 240
   vertex -2.85317 0.927051 230
   vertex -2.85317 0.927051 240
  endloop
 endfacet
 facet normal -0.809017 0.587785 0
  outer loop
   vertex -2.22943 2.00739 230
   vertex -2.59808 1.5 230
   vertex -2.22943 2.00739 240
  endloop
 endfacet
 facet normal -0.809017 0.587785 0
  outer loop
   vertex -2.22943 2.00739 240
   vertex -2.59808 1.5 230
   vertex -2.59808 1.5 240
  endloop
 endfacet
 facet normal -0.669131 0.743145 0
  outer loop
   vertex -1.76336 2.42705 230
   vertex -2.22943 2.00739 230
   vertex -1.76336 2.42705 240
  endloop
 endfacet
 facet normal -0.669131 0.743145 0
  outer loop
   vertex -1.76336 2.42705 240
   vertex -2.22943 2.00739 230
   vertex -2.22943 2.00739 240
  endloop
 endfacet
 facet normal -0.5 0.866025 0
  outer loop
   vertex -1.22021 2.74064 230
   vertex -1.76336 2.42705 230
   vertex -1.22021 2.74064 240
  endloop
 endfacet
 facet normal -0.5 0.866025 0
  outer loop
   vertex -1.22021 2.74064 240
   vertex -1.76336 2.42705 230
   vertex -1.76336 2.42705 240
  endloop
 endfacet
 facet normal -0.309017 0.951057 0
  outer loop
   vertex -0.623735 2.93444 230
   vertex -1.22021 2.74064 230
   vertex -0.623735 2.93444 240
  endloop
 endfacet
 facet normal -0.309017 0.951057 0
  outer loop
   vertex -0.623735 2.93444 240
   vertex -1.22021 2.74064 230
   vertex -1.22021 2.74064 240
  endloop
 endfacet
 facet normal -0.104529 0.994522 0
  outer loop
   vertex 0 3 230
   vertex -0.623735 2.93444 230
   vertex 0 3 240
  endloop
 endfacet
 facet normal -0.104529 0.994522 0
  outer loop
   vertex 0 3 240
   vertex -0.623735 2.93444 230
   vertex -0.623735 2.93444 240
  endloop
 endfacet
 facet normal 0.104529 -0.994522 0
  outer loop
   vertex 0.623735 -2.93444 170
   vertex 0 -3 170
   vertex 0.623735 -2.93444 160
  endloop
 endfacet
 facet normal 0.104529 -0.994522 0
  outer loop
   vertex 0.623735 -2.93444 160
   vertex 0 -3 170
   vertex 0 -3 160
  endloop
 endfacet
 facet normal 0.309017 -0.951057 0
  outer loop
   vertex 1.22021 -2.74064 170
   vertex 0.623735 -2.93444 170
   vertex 1.22021 -2.74064 160
  endloop
 endfacet
 facet normal 0.309017 -0.951057 0
  outer loop
   vertex 1.22021 -2.74064 160
   vertex 0.623735 -2.93444 170
   vertex 0.623735 -2.93444 160
  endloop
 endfacet
 facet normal 0.5 -0.866025 0
  outer loop
   vertex 1.76336 -2.42705 170
   vertex 1.22021 -2.74064 170
   vertex 1.76336 -2.42705 160
  endloop
 endfacet
 facet normal 0.5 -0.866025 0
  outer loop
   vertex 1.76336 -2.42705 160
   vertex 1.22021 -2.74064 170
   vertex 1.22021 -2.74064 160
  endloop
 endfacet
 facet normal 0.669131 -0.743145 0
  outer loop
   vertex 2.22943 -2.00739 170
   vertex 1.76336 -2.42705 170
   vertex 2.22943 -2.00739 160
  endloop
 endfacet
 facet normal 0.669131 -0.743145 0
  outer loop
   vertex 2.22943 -2.00739 160
   vertex 1.76336 -2.42705 170
   vertex 1.76336 -2.42705 160
  endloop
 endfacet
 facet normal 0.809017 -0.587785 0
  outer loop
   vertex 2.59808 -1.5 170
   vertex 2.22943 -2.00739 170
   vertex 2.59808 -1.5 160
  endloop
 endfacet
 facet normal 0.809017 -0.587785 0
  outer loop
   vertex 2.59808 -1.5 160
   vertex 2.22943 -2.00739 170
   vertex 2.22943 -2.00739 160
  endloop
 endfacet
 facet normal 0.913545 -0.406737 0
  outer loop
   vertex 2.85317 -0.927051 170
   vertex 2.59808 -1.5 170
   vertex 2.85317 -0.927051 160
  endloop
 endfacet
 facet normal 0.913545 -0.406737 0
  outer loop
   vertex 2.85317 -0.927051 160
   vertex 2.59808 -1.5 170
   vertex 2.59808 -1.5 160
  endloop
 endfacet
 facet normal 0.978148 -0.207912 0
  outer loop
   vertex 2.98357 -0.313585 170
   vertex 2.85317 -0.927051 170
   vertex 2.98357 -0.313585 160
  endloop
 endfacet
 facet normal 0.978148 -0.207912 0
  outer loop
   vertex 2.98357 -0.313585 160
   vertex 2.85317 -0.927051 170
   vertex 2.85317 -0.927051 160
  endloop
 endfacet
 facet normal 1 -0 0
  outer loop
   vertex 2.98357 0.313585 170
   vertex 2.98357 -0.313585 170
   vertex 2.98357 0.313585 160
  endloop
 endfacet
 facet normal 1 0 0
  outer loop
   vertex 2.98357 0.313585 160
   vertex 2.98357 -0.313585 170
   vertex 2.98357 -0.313585 160
  endloop
 endfacet
 facet normal 0.978148 0.207912 0
  outer loop
   vertex 2.85317 0.927051 170
   vertex 2.98357 0.313585 170
   vertex 2.85317 0.927051 160
  endloop
 endfacet
 facet normal 0.978148 0.207912 0
  outer loop
   vertex 2.85317 0.927051 160
   vertex 2.98357 0.313585 170
   vertex 2.98357 0.313585 160
  endloop
 endfacet
 facet normal 0.913545 0.406737 0
  outer loop
   vertex 2.59808 1.5 170
   vertex 2.85317 0.927051 170
   vertex 2.59808 1.5 160
  endloop
 endfacet
 facet normal 0.913545 0.406737 0
  outer loop
   vertex 2.59808 1.5 160
   vertex 2.85317 0.927051 170
   vertex 2.85317 0.927051 160
  endloop
 endfacet
 facet normal 0.809017 0.587785 0
  outer loop
   vertex 2.22943 2.00739 170
   vertex 2.59808 1.5 170
   vertex 2.22943 2.00739 160
  endloop
 endfacet
 facet normal 0.809017 0.587785 0
  outer loop
   vertex 2.22943 2.00739 160
   vertex 2.59808 1.5 170
   vertex 2.59808 1.5 160
  endloop
 endfacet
 facet normal 0.669131 0.743145 0
  outer loop
   vertex 1.76336 2.42705 170
   vertex 2.22943 2.00739 170
   vertex 1.76336 2.42705 160
  endloop
 endfacet
 facet normal 0.669131 0.743145 0
  outer loop
   vertex 1.76336 2.42705 160
   vertex 2.22943 2.00739 170
   vertex 2.22943 2.00739 160
  endloop
 endfacet
 facet normal 0.5 0.866025 0
  outer loop
   vertex 1.22021 2.74064 170
   vertex 1.76336 2.42705 170
   vertex 1.22021 2.74064 160
  endloop
 endfacet
 facet normal 0.5 0.866025 0
  outer loop
   vertex 1.22021 2.74064 160
   vertex 1.76336 2.42705 170
   vertex 1.76336 2.42705 160
  endloop
 endfacet
 facet normal 0.309017 0.951057 0
  outer loop
   vertex 0.623735 2.93444 170
   vertex 1.22021 2.74064 170
   vertex 0.623735 2.93444 160
  endloop
 endfacet
 facet normal 0.309017 0.951057 0
  outer loop
   vertex 0.623735 2.93444 160
   vertex 1.22021 2.74064 170
   vertex 1.22021 2.74064 160
  endloop
 endfacet
 facet normal 0.104529 0.994522 0
  outer loop
   vertex 3.67394e-16 3 170
   vertex 0.623735 2.93444 170
   vertex 3.67394e-16 3 160
  endloop
 endfacet
 facet normal 0.104529 0.994522 0
  outer loop
   vertex 3.67394e-16 3 160
   vertex 0.623735 2.93444 170
   vertex 0.623735 2.93444 160
  endloop
 endfacet
 facet normal -0.104529 0.994522 0
  outer loop
   vertex -0.623735 2.93444 170
   vertex 3.67394e-16 3 170
   vertex -0.623735 2.93444 160
  endloop
 endfacet
 facet normal -0.104529 0.994522 0
  outer loop
   vertex -0.623735 2.93444 160
   vertex 3.67394e-16 3 170
   vertex 3.67394e-16 3 160
  endloop
 endfacet
 facet normal -0.309017 0.951057 0
  outer loop
   vertex -1.22021 2.74064 170
   vertex -0.623735 2.93444 170
   vertex -1.22021 2.74064 160
  endloop
 endfacet
 facet normal -0.309017 0.951057 0
  outer loop
   vertex -1.22021 2.74064 160
   vertex -0.623735 2.93444 170
   vertex -0.623735 2.93444 160
  endloop
 endfacet
 facet normal -0.5 0.866025 0
  outer loop
   vertex -1.76336 2.42705 170
   vertex -1.22021 2.74064 170
   vertex -1.76336 2.42705 160
  endloop
 endfacet
 facet normal -0.5 0.866025 0
  outer loop
   vertex -1.76336 2.42705 160
   vertex -1.22021 2.74064 170
   vertex -1.22021 2.74064 160
  endloop
 endfacet
 facet normal -0.669131 0.743145 0
  outer loop
   vertex -2.22943 2.00739 170
   vertex -1.76336 2.42705 170
   vertex -2.22943 2.00739 160
  endloop
 endfacet
 facet normal -0.669131 0.743145 0
  outer loop
   vertex -2.22943 2.00739 160
   vertex -1.76336 2.42705 170
   vertex -1.76336 2.42705 160
  endloop
 endfacet
 facet normal -0.809017 0.587785 0
  outer loop
   vertex -2.59808 1.5 170
   vertex -2.22943 2.00739 170
   vertex -2.59808 1.5 160
  endloop
 endfacet
 facet normal -0.809017 0.587785 0
  outer loop
   vertex -2.59808 1.5 160
   vertex -2.22943 2.00739 170
   vertex -2.22943 2.00739 160
  endloop
 endfacet
 facet normal -0.913545 0.406737 0
  outer loop
   vertex -2.85317 0.927051 170
   vertex -2.59808 1.5 170
   vertex -2.85317 0.927051 160
  endloop
 endfacet
 facet normal -0.913545 0.406737 0
  outer loop
   vertex -2.85317 0.927051 160
   vertex -2.59808 1.5 170
   vertex -2.59808 1.5 160
  endloop
 endfacet
 facet normal -0.978148 0.207912 0
  outer loop
   vertex -2.98357 0.313585 170
   vertex -2.85317 0.927051 170
   vertex -2.98357 0.313585 160
  endloop
 endfacet
 facet normal -0.978148 0.207912 0
  outer loop
   vertex -2.98357 0.313585 160
   vertex -2.85317 0.927051 170
   vertex -2.85317 0.927051 160
  endloop
 endfacet
 facet normal -1 -0 0
  outer loop
   vertex -2.98357 -0.313585 170
   vertex -2.98357 0.313585 170
   vertex -2.98357 -0.313585 160
  endloop
 endfacet
 facet normal -1 0 -0
  outer loop
   vertex -2.98357 -0.313585 160
   vertex -2.98357 0.313585 170
   vertex -2.98357 0.313585 160
  endloop
 endfacet
 facet normal -0.978148 -0.207912 0
  outer loop
   vertex -2.85317 -0.927051 170
   vertex -2.98357 -0.313585 170
   vertex -2.85317 -0.927051 160
  endloop
 endfacet
 facet normal -0.978148 -0.207912 -0
  outer loop
   vertex -2.85317 -0.927051 160
   vertex -2.98357 -0.313585 170
   vertex -2.98357 -0.313585 160
  endloop
 endfacet
 facet normal -0.913545 -0.406737 0
  outer loop
   vertex -2.59808 -1.5 170
   vertex -2.85317 -0.927051 170
   vertex -2.59808 -1.5 160
  endloop
 endfacet
 facet normal -0.913545 -0.406737 -0
  outer loop
   vertex -2.59808 -1.5 160
   vertex -2.85317 -0.927051 170
   vertex -2.85317 -0.927051 160
  endloop
 endfacet
 facet normal -0.809017 -0.587785 0
  outer loop
   vertex -2.22943 -2.00739 170
   vertex -2.59808 -1.5 170
   vertex -2.22943 -2.00739 160
  endloop
 endfacet
 facet normal -0.809017 -0.587785 -0
  outer loop
   vertex -2.22943 -2.00739 160
   vertex -2.59808 -1.5 170
   vertex -2.59808 -1.5 160
  endloop
 endfacet
 facet normal -0.669131 -0.743145 0
  outer loop
   vertex -1.76336 -2.42705 170
   vertex -2.22943 -2.00739 170
   vertex -1.76336 -2.42705 160
  endloop
 endfacet
 facet normal -0.669131 -0.743145 -0
  outer loop
   vertex -1.76336 -2.42705 160
   vertex -2.22943 -2.00739 170
   vertex -2.22943 -2.00739 160
  endloop
 endfacet
 facet normal -0.5 -0.866025 0
  outer loop
   vertex -1.22021 -2.74064 170
   vertex -1.76336 -2.42705 170
   vertex -1.22021 -2.74064 160
  endloop
 endfacet
 facet normal -0.5 -0.866025 -0
  outer loop
   vertex -1.22021 -2.74064 160
   vertex -1.76336 -2.42705 170
   vertex -1.76336 -2.42705 160
  endloop
 endfacet
 facet normal -0.309017 -0.951057 0
  outer loop
   vertex -0.623735 -2.93444 170
   vertex -1.22021 -2.74064 170
   vertex -0.623735 -2.93444 160
  endloop
 endfacet
 facet normal -0.309017 -0.951057 -0
  outer loop
   vertex -0.623735 -2.93444 160
   vertex -1.22021 -2.74064 170
   vertex -1.22021 -2.74064 160
  endloop
 endfacet
 facet normal -0.104529 -0.994522 0
  outer loop
   vertex 0 -3 170
   vertex -0.623735 -2.93444 170
   vertex 0 -3 160
  endloop
 endfacet
 facet normal -0.104529 -0.994522 -0
  outer loop
   vertex 0 -3 160
   vertex -0.623735 -2.93444 170
   vertex -0.623735 -2.93444 160
  endloop
 endfacet
endsolid
